<svg width="100" height="100" viewBox="0 0 100 100" fill="none" xmlns="http://www.w3.org/2000/svg">
<g clip-path="url(#clip0_976_176)">
<path d="M56.9517 19.8435C59.2231 20.3508 61.4798 20.5996 63.702 21.3354C78.121 26.1108 88.5332 43.7288 89.7512 58.3921C90.5521 68.0325 86.806 78.3751 80.1066 85.2698C66.2184 99.5632 39.3865 100.55 23.746 88.6551C13.978 81.2267 8.89701 68.8472 10.4496 56.6005C12.2136 42.6809 22.0773 26.5088 35.6235 21.5738C37.701 20.817 39.483 20.6138 41.5981 20.1678C41.8371 20.1172 42.915 19.8774 43.0324 19.7739C44.503 21.7441 46.3962 23.6932 48.5093 24.9705C49.842 25.7761 50.252 25.7329 51.5713 24.9286C53.655 23.6585 55.4539 21.7531 56.9517 19.8435Z" fill="#F6EBDE"/>
<path d="M56.9514 19.8438C55.4536 21.7534 53.6548 23.6588 51.5707 24.9292C50.2514 25.7335 49.8414 25.7768 48.5087 24.9711C46.3957 23.6938 44.5024 21.7447 43.0319 19.7745C43.1283 19.6894 43.3367 19.1755 43.3594 19.0308C43.5031 18.1224 42.9144 17.6376 42.5375 16.9119C41.7039 15.3061 40.8324 12.894 41.5506 11.1166C42.3674 9.09555 44.4466 10.8581 45.2737 9.17895C45.5858 8.54565 45.5097 7.77703 45.6705 7.0842C46.1735 4.91712 47.7563 3.21515 50.0254 3.21827C50.4891 3.21896 50.9682 3.24388 51.4157 3.41449C52.8625 3.96647 53.949 5.54454 54.3117 7.01464C54.5415 7.94556 54.3355 9.05644 55.157 9.69736C56.0933 10.4279 57.3245 9.49422 58.1905 10.6657C59.2708 12.1268 58.4227 15.0279 57.6769 16.5218C57.3135 17.2496 56.5336 18.065 56.6128 18.9C56.6497 19.2797 56.8815 19.4984 56.9514 19.8438Z" fill="#E54F2A"/>
<path d="M53.9192 69.9253C55.4721 71.9647 56.5651 74.5169 56.9871 77.0585C57.3512 79.2494 57.4177 82.6471 55.5737 84.2304C53.7352 85.8091 51.4975 84.7073 50.0163 83.2299C48.7014 84.41 47.0249 85.5309 45.2122 84.7388C42.6335 83.612 42.609 79.5329 42.9828 77.1841C43.3958 74.5889 44.5198 72.0263 46.0634 69.9253C46.0831 69.9426 46.226 69.9447 46.2935 70.0025C47.369 70.9244 49.027 72.1308 50.502 71.928C51.1775 71.8352 53.3518 70.4157 53.9192 69.9253Z" fill="#E54F2A"/>
<path d="M53.9197 69.9254C53.3523 70.4158 51.178 71.8353 50.5028 71.9281C49.0281 72.1309 47.3702 70.9245 46.2944 70.0026C46.2268 69.9448 46.0839 69.9427 46.0643 69.9254C45.7432 69.6392 44.9867 68.7453 44.6891 68.3639C44.1262 67.6434 43.0466 65.9238 43.2716 65.005C43.7583 63.0148 47.88 58.9488 49.9568 58.9066C52.0323 58.8643 56.2755 63.012 56.7116 65.0064C56.9817 66.2415 55.3988 68.3619 54.5755 69.2336C54.4123 69.4063 54.0478 69.815 53.9197 69.9254Z" fill="#F6C769"/>
<path opacity="0.3" d="M45.2206 64.6067C45.5089 64.5648 45.6367 64.651 45.893 64.7292C47.2258 65.1355 48.5575 65.8273 49.8951 66.2526C51.4886 65.8474 52.9919 65.0646 54.5765 64.5884C55.8156 64.7749 55.9944 66.0138 54.8146 66.5648C53.4559 67.1991 51.8376 67.5777 50.4618 68.2159L49.7566 68.2571L44.7579 66.3554C44.13 65.8159 44.3931 64.7265 45.2206 64.6067Z" fill="black"/>
<path d="M47.5798 99.9883C30.7987 99.2892 15.5684 90.6157 9.47295 74.4637C5.45223 63.8089 6.58866 53.1749 11.0469 42.8634C16.112 31.1483 26.2069 19.8167 39.1712 17.3468C38.9797 16.6086 38.6566 15.921 38.475 15.1769C37.9934 13.2033 37.9369 10.9749 39.0062 9.18162C39.815 7.82572 41.0131 7.172 42.5161 6.82178C43.3524 2.37134 47.2402 -0.948846 51.8813 0.245437C54.8745 1.01579 56.9575 3.92622 57.5166 6.8768C61.6596 7.59974 62.424 11.7927 61.4794 15.3562C61.3 16.0338 60.9941 16.673 60.8111 17.3481C73.4444 19.7284 83.3567 30.5673 88.5228 41.8938C94.4406 54.8679 94.9201 68.6013 87.3678 81.0026C80.006 93.0915 66.3207 99.3972 52.4721 99.9883C52.0611 100.006 51.6436 99.9803 51.2316 99.9883C50.4094 100.004 49.5733 100.005 48.7511 99.9883C48.3625 99.9803 47.9681 100.004 47.5798 99.9883ZM43.0321 19.7744C42.915 19.8779 41.8368 20.1177 41.5977 20.1683C39.483 20.6143 37.7006 20.8175 35.6231 21.5743C22.077 26.5089 12.2133 42.6811 10.4485 56.6006C8.89595 68.8473 13.9773 81.2269 23.7449 88.6552C39.3858 100.55 66.2173 99.5633 80.1056 85.27C86.8053 78.3749 90.5511 68.0327 89.7502 58.3922C88.5321 43.7286 78.12 26.1106 63.701 21.3356C61.4787 20.5995 59.2221 20.351 56.9506 19.8437C56.8807 19.4986 56.6488 19.2796 56.613 18.9003C56.5341 18.0652 57.314 17.2495 57.6771 16.5221C58.4229 15.0281 59.271 12.127 58.1907 10.6659C57.3247 9.49481 56.0936 10.4282 55.1573 9.69761C54.3357 9.05669 54.5417 7.94581 54.3119 7.01488C53.9492 5.54513 52.8627 3.96671 51.4159 3.41473C50.9685 3.24412 50.4893 3.2192 50.0256 3.21851C47.7566 3.2154 46.1737 4.91736 45.6708 7.08444C45.5099 7.77727 45.586 8.54589 45.2739 9.1792C44.4468 10.858 42.3679 9.09545 41.5508 11.1168C40.8326 12.8942 41.7038 15.3063 42.5378 16.9121C42.9146 17.6378 43.503 18.1226 43.3597 19.0311C43.3366 19.1754 43.1285 19.689 43.0321 19.7744Z" fill="black"/>
<path d="M36.7479 52.3508C39.8923 52.2439 42.4404 55.354 40.7445 58.3094C39.162 61.0673 34.7097 61.079 33.0975 58.3347C31.4437 55.5184 33.7328 52.4533 36.7479 52.3508Z" fill="black"/>
<path d="M62.8628 52.3518C65.9831 52.1967 68.6259 55.301 66.9538 58.265C65.4006 61.0191 60.9923 61.1139 59.334 58.4204C57.6075 55.6162 59.8122 52.5033 62.8628 52.3518Z" fill="black"/>
<path d="M36.3662 54.5296C35.9184 54.1026 36.6339 53.4004 37.1092 53.8866C37.6001 54.3881 36.7258 54.8722 36.3662 54.5296Z" fill="white"/>
<path d="M63.2731 53.7307C63.7281 53.6871 64.0216 54.1899 63.6399 54.517C62.9465 55.1112 62.3995 53.8141 63.2731 53.7307Z" fill="white"/>
</g>
<defs>
<clipPath id="clip0_976_176">
<rect width="100" height="100" fill="white"/>
</clipPath>
</defs>
</svg>
