<svg width="100" height="100" viewBox="0 0 100 100" fill="none" xmlns="http://www.w3.org/2000/svg">
<path d="M83.2585 61.7359C82.8153 61.4529 82.4286 61.1064 81.9879 60.8118C74.7442 55.9751 61.7013 53.8497 53.0713 53.585C41.0349 53.2161 27.886 54.7671 17.2851 60.658L15.783 61.7356C15.7387 61.0433 15.4767 60.2061 15.3983 59.4673C14.7737 53.5888 16.0768 46.1613 18.1929 40.6553C18.5185 39.8079 19.3266 38.4107 19.5089 37.6626C19.8142 36.4097 18.7728 35.3638 17.5246 35.5311C16.794 35.6292 15.9547 35.9712 15.1266 36.0616C12.1334 36.3888 7.63542 35.6093 5.69423 33.09C5.53673 32.8855 5.07353 32.2156 5.17703 31.9912C8.31817 27.9882 13.0276 25.2602 17.8833 23.8204C21.27 22.8162 24.4761 22.5181 28.0091 22.6079C28.9766 22.6326 29.2161 22.9406 30.1782 22.3935C31.3562 21.7236 31.8301 21.287 33.2277 20.8213C37.5424 19.3834 42.6244 18.8433 47.131 18.5382C49.9388 18.3481 53.1269 18.5664 55.9119 18.8545C59.1234 19.1869 64.8778 20.0854 67.6718 21.5832C68.3549 21.9492 68.9585 22.6752 69.7602 22.73C70.1534 22.7569 70.6506 22.6165 71.0325 22.6082C77.4061 22.4694 83.299 23.773 88.6498 27.268C90.2056 28.2844 92.7832 30.3758 93.7806 31.9169C93.9841 32.2316 93.6861 32.5852 93.5013 32.8592C91.6713 35.5715 86.9509 36.3901 83.9146 36.0619C83.0303 35.9664 81.5854 35.4305 80.8358 35.5314C80.0046 35.6433 79.228 36.7866 79.497 37.6209C82.4771 43.9388 84.0869 51.3746 83.7201 58.3909C83.6623 59.506 83.318 60.6846 83.2585 61.7359Z" fill="#A8684A"/>
<path d="M83.2594 61.7357C83.2032 62.7326 84.0714 64.5772 84.3774 65.6561C87.3578 76.1542 84.7647 85.277 74.6502 90.165C67.8884 93.4327 55.7083 95.144 48.2071 94.945C39.9949 94.727 27.4044 92.791 20.6505 87.9768C13.2699 82.7154 12.2969 73.8035 14.6659 65.5795C14.9594 64.5608 15.8431 62.6605 15.7839 61.7361L17.286 60.6585C27.8865 54.7675 41.0358 53.2162 53.0722 53.5854C61.7019 53.8502 74.7448 55.9756 81.9888 60.8123C82.4295 61.1059 82.8162 61.4524 83.2594 61.7357Z" fill="#E3A06C"/>
<path d="M67.9893 18.3837C65.6248 17.5161 63.161 16.9279 60.6781 16.4866C59.3557 16.2516 58.0124 16.1462 56.6929 15.924C56.6023 15.9086 56.5544 15.8888 56.5029 15.8102C57.4939 13.5643 58.8099 11.4091 60.3249 9.47572C61.5367 7.92918 62.8954 6.38586 64.5589 5.31787C66.9051 9.22859 67.756 13.8685 67.9893 18.3837Z" fill="#FAD9C0"/>
<path d="M31.0527 18.3839C31.2469 13.8857 32.1219 9.19896 34.4832 5.31934C36.0676 6.40239 37.4568 7.89571 38.6401 9.39897C40.19 11.368 41.4945 13.5344 42.5404 15.8098C42.4868 15.8864 42.4401 15.9085 42.3489 15.9239C41.6915 16.0358 40.9564 16.0633 40.2801 16.1678C37.1492 16.6515 34.0225 17.2842 31.0527 18.3839Z" fill="#FAD9C0"/>
<path d="M35.8944 43.8471C40.85 43.2821 41.9661 50.3291 37.2878 51.3852C31.9834 52.5824 30.6815 44.4417 35.8944 43.8471Z" fill="#060202"/>
<path d="M62.1135 43.8478C67.1177 43.2446 68.2129 50.4516 63.4459 51.4019C58.1572 52.4561 56.9971 44.4645 62.1135 43.8478Z" fill="#060202"/>
<path d="M96.986 32.2196C96.868 33.7219 95.4749 35.4543 94.3235 36.3681C91.3537 38.7243 87.2023 39.4288 83.4912 39.0608C85.9136 45.563 87.3418 52.8838 86.6517 59.8513C86.596 60.4119 86.3029 61.4322 86.3473 61.9181C86.3845 62.3274 86.9062 63.4758 87.0589 63.9826C88.8179 69.8267 89.3203 75.9596 87.0207 81.7409C83.2299 91.2704 73.4661 94.6375 64.1372 96.4418C55.9102 98.0329 48.6013 98.4342 40.2791 97.313C31.1553 96.0837 19.7865 93.7019 14.179 85.7414C9.75755 79.4642 9.71351 71.6569 11.8129 64.5028C11.9768 63.9444 12.6753 62.2348 12.6939 61.8456C12.7126 61.454 12.4509 60.5482 12.4008 60.0731C11.9379 55.6896 12.3677 51.034 13.2629 46.7323C13.8071 44.1168 14.574 41.5436 15.5525 39.0612C11.1201 39.616 4.62091 38.0768 2.50646 33.7321C1.42448 31.509 2.2043 30.7352 3.63729 29.0669C9.2876 22.4894 19.1019 19.3213 27.6256 19.5326C27.7567 19.5358 27.8519 19.5572 27.9673 19.614C28.0823 14.4853 28.9171 8.78344 31.5308 4.29514C31.9727 3.53614 32.7709 2.09089 33.7088 2.00852C36.1917 1.79024 39.7031 5.82404 41.1081 7.63116C42.9796 10.0383 44.5929 12.6906 45.6745 15.5452C46.7276 15.4907 47.7758 15.4802 48.8308 15.4667C49.8526 15.4536 50.88 15.4388 51.9153 15.4603C52.2384 15.467 53.0764 15.6616 53.3403 15.5032C54.5036 12.5884 56.1388 9.85656 58.0896 7.4007C59.4872 5.64134 62.9087 1.79793 65.3346 2.00884C66.0935 2.07487 66.6101 2.90759 67.0061 3.49383C68.1125 5.13235 68.9813 7.28724 69.5538 9.17897C70.5599 12.5028 71.0543 16.0616 70.9981 19.538C79.7243 19.2056 89.2939 22.3317 95.2146 28.8746C95.7289 29.4429 96.9008 30.8022 96.986 31.5285C97.0079 31.7157 97.0011 32.026 96.986 32.2196ZM31.0531 18.3838C34.0229 17.2841 37.1496 16.6517 40.2807 16.168C40.9567 16.0635 41.6922 16.036 42.3495 15.9241C42.4405 15.9087 42.4874 15.8866 42.5411 15.81C41.4951 13.5346 40.1904 11.3682 38.6407 9.39917C37.4575 7.89591 36.0682 6.40259 34.4838 5.31954C32.1222 9.19884 31.2472 13.8856 31.0531 18.3838ZM67.9903 18.3838C67.757 13.8686 66.9061 9.22865 64.5599 5.31793C62.8961 6.38624 61.5377 7.92957 60.3259 9.47578C58.8109 11.4089 57.4949 13.5644 56.5039 15.8103C56.5553 15.8888 56.6032 15.9087 56.6939 15.9241C58.0134 16.1462 59.3567 16.2517 60.6791 16.4866C63.1619 16.928 65.6258 17.5158 67.9903 18.3838ZM15.7839 61.7357C15.8434 62.6601 14.9594 64.5605 14.666 65.5791C12.2969 73.8031 13.2699 82.7153 20.6506 87.9764C27.4041 92.7907 39.995 94.7266 48.2072 94.9446C55.7084 95.1436 67.8884 93.4324 74.6503 90.1646C84.7648 85.2766 87.3579 76.1542 84.3775 65.6557C84.0711 64.5771 83.2032 62.7325 83.2595 61.7354C83.3189 60.6841 83.6632 59.5058 83.7214 58.391C84.0882 51.3747 82.4784 43.9389 79.4983 37.621C79.2289 36.7867 80.0058 35.6437 80.8371 35.5315C81.5864 35.4306 83.0312 35.9665 83.9159 36.062C86.9522 36.3902 91.6726 35.5716 93.5025 32.8593C93.6874 32.5853 93.9857 32.2317 93.7819 31.917C92.7848 30.3759 90.2071 28.2845 88.651 27.2681C83.3003 23.7731 77.407 22.4695 71.0337 22.6083C70.6516 22.6166 70.1546 22.757 69.7615 22.7301C68.9598 22.6753 68.3561 21.9493 67.6731 21.5833C64.8791 20.0855 59.1243 19.187 55.9131 18.8546C53.1281 18.5665 49.9401 18.3482 47.1323 18.5383C42.6257 18.8434 37.5433 19.3835 33.2289 20.8214C31.8313 21.2871 31.3575 21.7237 30.1794 22.3936C29.2173 22.9404 28.9779 22.6323 28.0103 22.608C24.4774 22.5182 21.271 22.8163 17.8846 23.8205C13.0285 25.2607 8.31878 27.9886 5.17796 31.9917C5.07446 32.216 5.53766 32.8859 5.69517 33.0904C7.63668 35.6097 12.1343 36.3893 15.1276 36.062C15.9553 35.9716 16.7949 35.6293 17.5255 35.5315C18.7737 35.3642 19.8155 36.4101 19.5098 37.663C19.3272 38.4111 18.5194 39.8083 18.1938 40.6558C16.0777 46.1614 14.7743 53.5893 15.3992 59.4677C15.4776 60.2058 15.7396 61.0434 15.7839 61.7357Z" fill="#060202"/>
<path d="M29.1841 73.2864C32.9131 72.8672 37.9234 76.3907 35.692 80.3114C33.2805 84.5477 24.9741 81.773 25.4238 76.7638C25.5952 74.8567 27.3602 73.4916 29.1841 73.2864Z" fill="#704538"/>
<path d="M68.2834 73.2877C73.2757 72.7797 75.5534 77.6501 71.6515 80.8726C69.3801 82.7483 64.9147 83.191 63.302 80.2832C61.455 76.9533 65.085 73.6134 68.2834 73.2877Z" fill="#704538"/>
<path d="M36.5861 45.8827C36.4058 46.0622 35.9001 46.0408 35.8352 45.7061C35.6295 44.6446 37.1936 45.2779 36.5861 45.8827Z" fill="white"/>
<path d="M62.7279 45.1466C63.3438 45.0187 63.4798 45.821 63.0015 45.9623C62.3312 46.1604 62.1718 45.262 62.7279 45.1466Z" fill="white"/>
</svg>
