<svg width="100" height="100" viewBox="0 0 100 100" fill="none" xmlns="http://www.w3.org/2000/svg">
<path d="M82.5502 33.9324C82.0518 33.2611 80.9105 32.1477 80.8236 31.3061C80.7584 30.6767 81.4433 29.4717 81.6805 28.8031C83.3189 24.1879 83.7315 16.781 82.1894 12.1126C82.0649 11.7357 81.4579 10.1935 81.1707 10.0465C80.7702 9.84122 79.2728 10.1723 78.7828 10.2899C75.2443 11.1403 69.9901 14.0715 67.4222 16.781C66.8062 17.4307 66.524 18.1945 65.6046 18.4654C64.7366 18.721 64.1023 18.1386 63.2972 17.8363C55.8703 15.0486 44.2159 15.0483 36.7884 17.8363C35.9821 18.1389 35.3487 18.721 34.4809 18.4654C33.5569 18.1932 33.1685 17.2984 32.5165 16.6294C29.9265 13.9715 23.4997 10.2971 19.896 10.0102C18.9617 9.93567 18.8776 9.94057 18.4414 10.7733C16.0017 15.4307 16.8542 24.6193 18.6631 29.4505C18.881 30.0329 19.3349 30.6813 19.2604 31.3081C19.1632 32.1281 18.361 32.8591 17.8987 33.4739C11.65 41.7833 7.22106 50.7896 7.9336 61.757C9.20935 81.3938 28.3226 90.3258 44.8393 91.0033C56.2338 91.4706 67.9394 90.6827 77.9464 84.506C85.8412 79.6332 91.5444 71.5983 92.1523 61.757C92.8167 51.001 88.6501 42.1517 82.5502 33.9324Z" fill="#E09861"/>
<path d="M41.462 62.4458C41.6738 62.8033 42.5617 63.7439 42.9157 64.0926C44.6845 65.8368 46.9366 67.3591 49.1379 68.4134C49.2149 68.9068 51.0741 68.3522 51.0741 68.3522C53.2014 67.327 55.3763 65.842 57.0995 64.1691C57.4891 63.7909 58.387 62.8465 58.6258 62.4455C58.9462 62.6961 59.3582 62.8644 59.7333 63.002C64.7062 64.825 68.679 61.3578 72.927 59.3176C78.5357 56.6237 84.6829 56.4282 89.9653 60.0405C90.7306 60.564 91.4115 61.202 92.1532 61.7566C91.5453 71.5978 85.8422 79.6324 77.9474 84.5055C67.9404 90.6822 56.2348 91.4698 44.8403 91.0028C28.3236 90.3257 9.21032 81.3933 7.93457 61.7569C8.91443 60.9748 9.86698 60.166 10.9403 59.5238C16.1079 56.4325 21.8613 56.7747 27.1608 59.3182C31.4088 61.3569 35.3816 64.8256 40.3545 63.0027C40.7296 62.8648 41.1413 62.6965 41.462 62.4458Z" fill="#F6EBDE"/>
<path d="M61.2293 37.5897C64.833 37.3759 69.4079 40.7584 67.9179 44.9357C66.6589 48.4646 62.0198 48.6202 59.3047 46.9956C54.6062 44.1844 55.6783 37.9188 61.2293 37.5897Z" fill="#F6EBDE"/>
<path d="M38.2464 37.59C41.4297 37.4432 44.5317 39.8041 43.5897 43.4431C42.3022 48.4175 33.9829 49.9238 32.1698 44.936C30.7239 40.9584 34.8737 37.7452 38.2464 37.59Z" fill="#F6EBDE"/>
<path d="M30.988 19.7294C28.2936 21.0605 25.7487 22.939 23.4626 24.9377C22.8945 25.4345 22.3763 25.992 21.8255 26.5061C21.732 26.5934 21.23 27.047 21.171 27.0025C20.8599 26.1806 20.5972 25.3414 20.4054 24.4773C19.8928 22.1693 19.6236 19.2176 20.0275 16.8819C20.2272 15.7266 20.5398 14.9707 21.7892 14.9086C24.3267 14.7828 28.2461 16.9394 30.1165 18.6957C30.3105 18.878 30.7862 19.3391 30.9166 19.5378C30.9588 19.6029 31.0178 19.6137 30.988 19.7294Z" fill="#F6EBDE"/>
<path d="M69.0979 19.7289C69.0681 19.6132 69.1271 19.6021 69.1694 19.5374C70.2082 17.9547 73.9734 15.8882 75.7331 15.3461C76.9443 14.9729 79.2505 14.3594 79.8448 15.9579C80.5859 17.9514 80.1913 22.0633 79.7529 24.1703C79.6464 24.6827 79.1946 26.5857 78.9494 26.9227C78.8926 27.0008 78.8482 27.0505 78.7687 26.9655C75.8815 24.134 72.6858 21.5078 69.0979 19.7289Z" fill="#F6EBDE"/>
<path d="M54.189 75.1115C53.1744 75.0282 51.7335 74.4507 50.9163 73.8101C50.7657 73.6922 50.1236 72.9542 50.0171 72.9735C49.68 73.2866 49.3214 73.699 48.9525 73.9631C48.1651 74.5272 46.8475 75.0334 45.898 75.1115C45.1917 77.6717 45.1405 81.1046 47.3588 82.8749C48.6312 83.8903 51.2249 83.8779 52.5544 82.9981C54.9109 81.4392 54.9363 77.6162 54.189 75.1115Z" fill="#EA7368"/>
<path d="M50.9156 73.8105C50.7951 73.8899 50.843 74.101 50.8417 74.2304C50.824 76.0132 51.1364 78.4381 50.9091 80.1189C50.7635 81.1957 49.257 81.2252 49.104 80.0424C48.9565 78.9038 49.198 77.4672 49.1006 76.2949L48.9521 73.9631C49.321 73.6987 49.6796 73.2863 50.0168 72.9735C50.1226 72.9542 50.765 73.6925 50.9156 73.8105Z" fill="#D4493B"/>
<path d="M94.9889 57.6994C94.9945 57.903 94.9852 58.1082 94.9889 58.3119C95.0032 59.0985 95.0041 59.8985 94.9889 60.6848C94.9849 60.8884 94.9948 61.0937 94.9889 61.2973C94.7967 67.9021 92.1217 74.5563 88.0445 79.5176C79.9718 89.3405 66.9094 93.5848 54.8434 93.9081C54.481 93.9179 54.115 93.9025 53.7524 93.9081C53.0749 93.9185 52.3937 93.9025 51.7159 93.9081C50.6026 93.9169 49.4839 93.9169 48.3706 93.9081C47.6928 93.9025 47.0116 93.9185 46.3341 93.9081C45.9473 93.9022 45.557 93.9188 45.1705 93.9081C24.5927 93.3381 2.85188 80.7327 5.17052 56.0539C6.04917 46.7022 10.5489 38.0525 16.2154 31.0059C15.922 30.1496 15.583 29.313 15.3327 28.4391C13.8247 23.1719 13.4292 14.1487 16.0412 9.24127C16.3598 8.64255 17.0404 7.48205 17.6393 7.24903C19.7896 6.4124 23.8264 7.90134 25.8948 8.82426C29.2915 10.34 32.5952 12.5087 35.1852 15.2804C37.8799 14.2572 40.7015 13.6316 43.5439 13.2342C47.9759 12.6146 52.1093 12.6136 56.5414 13.2342C59.349 13.6274 62.1995 14.2238 64.8448 15.2889C65.6629 14.5333 66.4418 13.7078 67.3186 12.997C70.5408 10.3845 77.3185 6.66731 81.4236 7.02386C82.8282 7.14576 83.2408 7.79382 83.9198 8.98962C86.1941 12.9957 86.2264 19.9191 85.5945 24.4252C85.2772 26.6884 84.6963 28.9009 83.8757 31.0111C87.6623 35.7067 90.8844 41.0435 92.8808 46.866C94.051 50.2772 94.8914 54.063 94.9889 57.6994ZM7.93408 61.7568C9.20982 81.3935 28.3231 90.3255 44.8398 91.003C56.2343 91.4704 67.9399 90.6824 77.9469 84.5057C85.8417 79.633 91.5448 71.598 92.1527 61.7568C92.8172 51.0011 88.6506 42.1517 82.5509 33.9324C82.0526 33.2612 80.9113 32.1477 80.8244 31.3062C80.7592 30.6768 81.4441 29.4718 81.6813 28.8032C83.3197 24.1879 83.7323 16.7811 82.1902 12.1126C82.0657 11.7358 81.4587 10.1936 81.1715 10.0465C80.771 9.84129 79.2735 10.1724 78.7836 10.29C75.2451 11.1404 69.9909 14.0715 67.423 16.7811C66.807 17.4308 66.5247 18.1946 65.6054 18.4655C64.7373 18.7211 64.103 18.1387 63.298 17.8364C55.8711 15.0487 44.2167 15.0484 36.7892 17.8364C35.9828 18.139 35.3495 18.7211 34.4817 18.4655C33.5577 18.1933 33.1693 17.2985 32.5173 16.6295C29.9273 13.9715 23.5004 10.2972 19.8967 10.0103C18.9625 9.93574 18.8784 9.94064 18.4422 10.7734C16.0024 15.4307 16.855 24.6193 18.6638 29.4506C18.8818 30.0329 19.3357 30.6813 19.2612 31.3082C19.164 32.1281 18.3617 32.8592 17.8994 33.4739C11.6505 41.7831 7.22153 50.7893 7.93408 61.7568Z" fill="black"/>
<path d="M58.6251 62.4458C58.3866 62.8468 57.4884 63.7913 57.0988 64.1694C55.3753 65.8423 53.2008 67.3274 51.0734 68.3526L51.0771 71.807C53.261 74.8842 56.9346 74.1208 59.4261 71.9011C59.6801 71.6749 60.1415 71.0272 60.4221 70.9595C61.2374 70.7628 61.8168 71.3896 61.5737 72.2478C61.4237 72.7779 59.903 74.0159 59.419 74.343C57.884 75.3806 56.0193 75.9159 54.1887 75.7656C53.1741 75.6823 51.7331 75.1048 50.916 74.4643C50.7654 74.3463 50.1233 73.6083 50.0168 73.6276C49.6796 73.9407 49.321 74.3531 48.9522 74.6172C48.1648 75.1813 46.8472 75.6875 45.8977 75.7656C43.6642 75.9489 41.5538 75.145 39.827 73.6966C39.5143 73.4341 38.6195 72.6112 38.5118 72.2488C38.2674 71.4259 38.8744 70.7677 39.6643 70.9595C39.9459 71.0278 40.4057 71.6743 40.66 71.9011C42.5918 73.6217 45.3128 74.6064 47.665 73.1479C48.0481 72.9103 49.122 71.9246 49.2251 71.4984C49.3372 71.0357 49.1906 70.37 49.1708 69.9088C49.1497 69.4121 49.2136 68.9072 49.1366 68.4137C46.9353 67.3591 44.6831 65.8368 42.9144 64.0929C42.5604 63.7439 41.6724 62.8037 41.4607 62.4461C41.4405 62.4118 41.2216 61.7667 41.2018 61.685C40.9292 60.566 41.3163 59.8012 42.2102 59.2159C45.2227 57.2433 54.9273 57.2309 57.9206 59.2444C58.5673 59.6793 58.9955 60.2493 58.9828 61.0941C58.9797 61.3382 58.7452 62.2435 58.6251 62.4458Z" fill="black"/>
<path d="M37.8092 48.9942C43.6872 48.287 43.6906 56.838 38.1619 56.4648C33.5194 56.1517 33.3899 49.5259 37.8092 48.9942Z" fill="black"/>
<path d="M61.08 48.9922C66.6415 48.2578 67.1417 56.2202 61.9335 56.4732C56.9969 56.7127 56.402 49.6098 61.08 48.9922Z" fill="black"/>
<path d="M38.2371 50.2206C38.8574 50.1889 38.8565 51.0758 38.2933 51.115C37.7391 51.1533 37.6413 50.2509 38.2371 50.2206Z" fill="white"/>
<path d="M61.5529 50.3702C61.8987 49.9878 62.5424 50.3525 62.2968 50.8869C62.0335 51.4604 61.126 50.8421 61.5529 50.3702Z" fill="white"/>
</svg>
