<svg width="100" height="100" viewBox="0 0 100 100" fill="none" xmlns="http://www.w3.org/2000/svg">
<path d="M35.7789 30.2113L44.9503 27.718C45.1426 28.0205 55.1617 28.077 55.2789 27.896C57.9051 28.3464 61.7533 29.5492 64.272 30.3893C64.1785 31.407 64.5595 31.5663 65.6076 31.3686C71.4159 29.4056 75.8241 27.892 81.635 25.937C81.8454 25.8662 84.1853 25.0368 84.2171 25.1356C86.532 32.3479 75.38 39.4768 74.8678 39.9165C74.0701 40.6017 81.7238 39.9165 82.6143 43.122C82.7235 43.515 79.9107 50.2262 80.1211 50.3344C81.2787 50.9578 84.545 52.9942 84.8401 55.1426C85.2579 58.1824 81.7238 61.9098 81.7238 61.9098C81.3939 62.2794 80.5662 64.1359 81.6347 67.6974C81.6313 68.2613 83.0594 80.9644 62.7581 88.0879C54.3003 91.0556 45.2147 90.3394 36.6691 87.6428C31.4432 85.9936 24.9204 82.6302 21.9773 77.8484C21.7817 77.5305 19.2957 71.9406 18.861 70.2798C18.7852 69.99 19.1031 63.785 18.861 63.5126C17.3474 60.6633 14.6385 56.6722 15.2992 53.3619C15.3189 53.263 20.3659 50.1955 20.2854 50.1564C18.1488 49.1153 17.2589 43.717 17.7922 42.6769C18.1909 41.8993 24.2202 39.1656 23.6689 38.9372C16.3677 35.91 15.2104 25.4031 15.2104 25.4031L35.0667 31.5469C36.1369 31.7523 35.8617 31.237 35.7789 30.2113Z" fill="#71A13B"/>
<path d="M44.2274 28.8404L36.5402 31.0031C36.4938 30.4288 35.4891 27.9516 35.1799 27.3579C34.442 25.9405 33.6142 26.6584 32.3567 26.4974C31.4575 26.3822 30.2488 25.7151 29.7009 24.9892C28.3255 23.1674 29.8748 21.8525 31.7794 21.9497C32.4269 21.9827 33.7982 22.6352 34.1795 21.7894C34.2797 21.5673 33.9124 20.4668 33.8426 20.1252C33.3488 17.7054 33.0913 15.4071 34.1004 13.0641C35.1655 10.5906 37.9002 9.0022 39.8081 11.6748C41.4666 13.9981 41.0296 16.1447 41.3544 18.7786C41.69 21.4925 42.7806 26.5649 44.2274 28.8404Z" fill="#F6B253"/>
<path d="M63.445 31.0033C60.9263 30.1636 58.3843 29.3712 55.7578 28.9208C57.2474 26.6242 58.398 21.0627 58.7102 18.2976C58.9927 15.7977 58.6227 13.7572 60.2552 11.5931C61.9016 9.41108 64.272 10.1998 65.5108 12.316C66.7847 14.4921 66.7596 17.0718 66.3022 19.4843C66.2254 19.889 65.7392 21.5522 65.8247 21.7679C66.1783 22.6634 67.557 21.9879 68.2058 21.9499C69.2916 21.8861 70.8206 22.3622 70.8179 23.6745C70.8149 25.1964 68.7744 26.4168 67.4111 26.521C66.1265 26.6192 65.5289 25.9671 64.7909 27.4242C64.4934 28.0126 63.496 30.448 63.445 31.0033Z" fill="#F6B253"/>
<path d="M78.8991 49.5061C78.8884 49.1986 78.3985 47.9261 78.26 47.5424C77.4766 45.375 76.3854 43.3563 75.2959 41.3361C77.1411 41.2149 79.7321 41.1936 80.9789 42.82C82.4985 44.8021 80.401 48.069 78.8991 49.5061Z" fill="#BBCF88"/>
<path d="M24.6892 41.3361C24.3763 42.1505 23.8451 42.8797 23.4464 43.6574C22.9131 44.6975 21.1334 48.5354 21.086 49.5064C18.8495 47.2706 16.6397 42.8731 21.0446 41.5755C22.3341 41.1952 23.3719 41.2496 24.6892 41.3361Z" fill="#BBCF88"/>
<path d="M80.7402 61.5207L80.581 60.1981C80.5108 57.1292 79.8337 54.1281 79.3789 51.1079C79.6507 51.2478 80.1382 51.2972 80.4618 51.4265C86.052 53.6589 83.6956 58.2091 80.7402 61.5207Z" fill="#BBCF88"/>
<path d="M20.6057 51.1079C20.7316 51.1627 20.6247 51.3674 20.605 51.4662C19.9443 54.7765 19.4277 58.1396 19.3245 61.5207C18.9442 61.0926 18.4901 60.7377 18.1255 60.2769C15.7524 57.2778 14.9858 53.3931 19.1355 51.5998C19.5746 51.4101 20.2371 51.2999 20.6057 51.1079Z" fill="#BBCF88"/>
<path d="M19.7251 67.3117C19.2693 67.8413 18.8559 68.4046 18.4906 69.0006C18.2656 69.3682 17.6422 70.5426 17.5777 70.6464C15.1603 74.5498 12.8026 78.5352 7.51486 78.2043C4.44093 78.012 0.373313 75.7525 0.0370716 72.3884C-0.451096 67.5047 3.95443 62.7877 8.97602 64.2475C14.9275 65.9778 13.438 73.9504 7.68248 73.311C6.47007 73.1761 5.10307 72.2468 5.31743 70.8815C5.44532 70.0668 6.58126 69.9593 6.79796 70.6718C6.93787 71.1326 6.64904 71.2852 7.2297 71.6014C9.72831 72.9627 12.5091 69.5268 10.71 67.1588C8.8301 64.6849 4.99121 65.1621 3.10899 67.3912C-0.948613 72.1964 3.30098 77.1198 8.79371 76.6824C13.3492 76.3195 15.2938 71.0194 17.4829 67.7929C18.15 66.8095 19.0162 65.7991 19.885 64.9894C23.1967 61.9031 30.6411 59.6122 34.6452 62.3593C35.1625 62.7142 35.3521 63.364 34.7427 63.7119C34.2035 64.0198 33.5898 63.4578 33.0956 63.2685C28.4951 61.5061 22.8163 63.7189 19.7251 67.3117Z" fill="#407235"/>
<path d="M80.18 64.9092C80.9711 65.6258 81.8856 66.8842 82.502 67.7928C84.7165 71.057 86.6775 76.3434 91.267 76.6867C96.6432 77.0887 100.908 72.2995 96.9928 67.5146C95.1213 65.2271 91.2603 64.6053 89.31 67.1136C87.5082 69.4309 90.2022 72.981 92.7722 71.6183C93.4357 71.2667 92.8811 70.2603 93.833 70.1906C94.948 70.1091 94.8388 71.5676 94.3523 72.2374C93.2918 73.6969 90.5912 73.5707 89.2031 72.6631C86.7509 71.0594 86.5386 67.4545 88.7464 65.5085C91.8517 62.7719 96.6115 63.9569 98.7101 67.318C101.578 71.9115 99.451 76.4402 94.4321 77.8446C88.1033 79.6153 85.1031 75.1073 82.2613 70.4356C81.5096 69.2002 81.2252 68.5414 80.2595 67.3918C77.0691 63.5936 71.4909 61.4626 66.6733 63.3729C66.1547 63.5786 65.6692 64.0881 65.1226 63.5903C64.0218 62.5882 66.5631 61.7718 67.2079 61.5845C71.3366 60.3881 77.0357 62.0607 80.18 64.9092Z" fill="#407235"/>
<path d="M48.7753 58.0446C52.0005 57.7925 55.0173 58.6172 57.7213 60.3418C59.0653 61.1989 61.1826 62.9923 61.8844 64.4275C62.0874 64.8422 62.2504 65.2055 61.8043 65.5511C60.9415 66.2199 60.3505 64.7677 59.9191 64.2305C54.9442 58.0339 45.1468 57.9607 40.1456 64.1503C39.6731 64.735 39.1265 66.1454 38.2433 65.5677C37.4954 65.0786 38.2026 64.2635 38.5569 63.7623C40.6882 60.7442 45.0971 58.332 48.7753 58.0446Z" fill="#407235"/>
<path d="M19.8853 69.2104C19.893 69.3387 19.8335 69.5423 19.9654 69.6108C19.8776 69.907 20.0833 70.1908 20.1257 70.4118C20.5074 72.4096 21.0376 73.8487 22.0473 75.6181C22.2824 76.0301 22.5001 76.4849 22.848 76.8194C25.7911 81.6016 32.1536 85.0241 37.3795 86.673C45.9251 89.3696 53.7388 89.4116 62.3051 86.7728C67.5264 85.1644 74.0866 81.7369 77.0574 76.9794C77.4096 76.6492 77.618 76.184 77.8581 75.778C78.8811 74.0474 79.3443 72.7655 79.7797 70.8118C79.8655 70.4275 79.9543 70.1116 80.0198 69.6906C80.0448 69.5293 80.0779 69.3801 80.0999 69.2101C80.172 68.6531 80.2568 68.0922 80.2602 67.5279C81.2258 68.6775 81.5103 69.3363 82.2619 70.5718C79.9076 82.4047 68.3605 88.3308 57.4412 90.3179C55.9423 90.5907 54.1429 90.9032 52.6349 90.9967C52.4232 91.0097 52.2065 90.989 51.9945 90.9967C51.7818 91.0044 51.5668 90.9917 51.3541 90.9967C50.4535 91.0174 49.5323 91.018 48.6318 90.9967C48.3924 90.991 48.1503 91.006 47.9112 90.9967C47.7516 90.9903 47.5897 91.006 47.4307 90.9967C37.3117 90.3983 24.6685 85.533 19.7117 76.1523C19.0545 74.9088 17.7981 71.9237 17.8037 70.5718C17.8054 70.1711 18.2659 69.5043 18.4912 69.1366C18.8562 68.5406 19.2699 67.9773 19.7257 67.4478C19.7915 68.0321 19.8496 68.6238 19.8853 69.2104Z" fill="black"/>
<path d="M60.0637 53.3731C64.2134 52.8966 64.758 58.7854 60.6807 59.0361C56.6946 59.2816 56.1153 53.8266 60.0637 53.3731Z" fill="black"/>
<path d="M39.2449 53.3736C41.7282 53.1024 43.7994 55.7757 42.0674 57.8783C40.1405 60.2176 36.002 58.7481 36.5767 55.5897C36.7954 54.3883 38.0843 53.5001 39.2449 53.3736Z" fill="black"/>
<path d="M54.3752 63.2221C54.819 63.1493 55.3142 63.2722 55.586 63.6548C56.7449 65.2866 53.7832 69.2186 52.3137 67.5688C51.2666 66.3932 52.9685 63.4525 54.3752 63.2221Z" fill="black"/>
<path d="M45.0863 63.2219C47.0847 62.8089 49.1499 67.2471 47.2486 67.8675C45.6385 68.3927 43.9603 65.6895 44.1667 64.3038C44.2341 63.8517 44.6228 63.3177 45.0863 63.2219Z" fill="black"/>
<path d="M37.0204 8.01503C37.2782 7.99499 37.6435 7.99499 37.9012 8.01503C41.107 8.26512 43.2076 12.0352 43.4253 14.9445C43.6961 18.5637 43.9673 21.4794 45.0865 24.9774C45.1777 25.2628 45.6642 26.7157 45.786 26.8409C45.8979 26.9557 46.1226 26.9297 46.2712 26.9227C47.9868 26.8436 49.5465 26.6005 51.3168 26.6749C52.0785 26.707 53.182 26.9551 53.8765 26.9264C54.3383 26.9073 54.4051 26.3918 54.5577 25.9988C55.9571 22.3979 56.2807 18.901 56.5591 15.1051C56.7765 12.1441 58.8033 8.27547 62.0832 8.01536C62.3417 7.99499 62.7046 7.99599 62.9641 8.01536C65.6747 8.21637 67.5973 10.6342 68.366 13.0647C69.0478 15.2203 68.9917 17.4094 68.6578 19.6219C71.307 19.7491 73.6337 21.6931 73.031 24.5336C72.5598 26.7547 70.2462 28.3778 68.1032 28.7358C67.8461 28.7789 66.7886 28.8416 66.7258 28.8797C66.591 28.9612 66.5328 29.4143 66.407 29.5612L84.2111 23.4624C85.6679 23.013 86.0986 24.5446 86.1878 25.6742C86.4259 28.6961 85.0104 31.614 83.2875 33.9928C81.8961 35.9134 80.1541 37.5438 78.338 39.0541C82.8995 39.779 85.0205 43.1868 83.0758 47.558C82.7563 48.2765 82.2681 48.8772 81.9409 49.5854C83.6601 50.2683 85.2645 51.8026 85.8252 53.5906C86.9558 57.1971 84.7396 60.8123 82.2738 63.2615C82.4073 64.8055 82.7282 66.3862 82.5012 67.9291C81.8848 67.0206 80.9699 65.7621 80.1792 65.0455C80.1715 64.3734 79.7912 63.4071 79.865 62.7706C79.9241 62.2628 80.4096 61.8908 80.7395 61.5212C83.6949 58.2095 86.0509 53.6597 80.461 51.4269C80.1374 51.2977 79.6499 51.2483 79.3782 51.1084C79.1678 51.0002 78.8846 50.6452 78.8362 50.4095C78.7588 50.0322 78.9077 49.7961 78.8977 49.5063C80.3996 48.0692 82.4975 44.8023 80.9775 42.8202C79.7308 41.1937 77.1393 41.2155 75.2945 41.3363C75.0371 41.3534 74.8047 41.4378 74.5429 41.4115C73.5498 41.3116 73.0587 39.9019 73.8567 39.217C74.3689 38.7773 75.4822 38.2491 76.1206 37.7969C79.314 35.5364 83.2705 31.3716 83.8528 27.3494C83.8852 27.126 84.0144 26.1834 83.8652 26.0726C83.782 26.0108 82.5903 26.4459 82.3796 26.5167C76.5687 28.4713 70.7948 30.5429 64.9862 32.5059C63.9381 32.7036 63.3504 32.0211 63.4439 31.0037C63.495 30.4484 64.4924 28.0129 64.7902 27.4245C65.5281 25.9674 66.1255 26.6192 67.4104 26.5213C68.7737 26.4172 70.8145 25.1967 70.8172 23.6748C70.8195 22.3622 69.2909 21.8864 68.205 21.9502C67.5563 21.9882 66.1776 22.6637 65.824 21.7682C65.7388 21.5525 66.225 19.8893 66.3015 19.4846C66.7589 17.0722 66.7839 14.4924 65.5101 12.3164C64.2713 10.2001 61.9006 9.41108 60.2545 11.5935C58.6217 13.7575 58.9916 15.798 58.7095 18.2979C58.3973 21.063 57.2466 26.6245 55.7571 28.9211C55.6399 29.1017 55.3875 29.3385 55.1547 29.3265C52.8708 29.0861 50.5696 28.8924 48.2666 28.9972C47.1701 29.0473 45.9927 29.3114 44.9072 29.3278C44.5149 29.3338 44.419 29.1435 44.2267 28.8406C42.7799 26.5651 41.6894 21.4927 41.3545 18.7781C41.0296 16.1446 41.4667 13.9976 39.8082 11.6743C37.9002 9.00171 35.1656 10.5904 34.1004 13.0637C33.0913 15.4067 33.3484 17.7053 33.8426 20.1247C33.9124 20.4663 34.2797 21.5665 34.1795 21.7889C33.7982 22.6347 32.4269 21.9822 31.7794 21.9492C29.8752 21.8524 28.3255 23.1669 29.7009 24.9887C30.2488 25.7146 31.4576 26.3818 32.3568 26.497C33.6142 26.6579 34.4417 25.94 35.1799 27.3574C35.4891 27.9514 36.4938 30.4287 36.5402 31.0027C36.623 32.0284 36.0681 32.7109 34.9976 32.5056L16.1213 26.0372V27.2786C16.1213 30.7956 21.3646 36.0687 24.1033 37.9569C24.5945 38.2955 26.1157 39.0912 26.3572 39.4668C26.8781 40.2772 26.247 41.4185 25.2897 41.4225C25.1037 41.4231 24.899 41.3497 24.689 41.3357C23.3721 41.2492 22.334 41.1948 21.0444 41.5747C16.6395 42.8726 18.8493 47.2701 21.0858 49.5056C21.0815 49.5951 21.1673 49.7404 21.1653 49.8642C21.1559 50.3741 21.1212 50.8386 20.6053 51.1074C20.237 51.2994 19.5746 51.4095 19.1355 51.5992C14.9857 53.3926 15.7524 57.2772 18.1254 60.2764C18.49 60.7372 18.9442 61.0921 19.3245 61.5202C19.5666 61.7926 20.0717 62.3609 20.1175 62.6885C20.2227 63.4405 19.7913 64.347 19.8851 65.1247C19.0163 65.9344 18.1501 66.9448 17.483 67.9281C17.4185 66.3594 17.5414 64.8141 17.707 63.2591C15.3507 60.8681 13.1736 57.4185 14.0792 53.9102C14.5814 51.9652 16.2145 50.3337 18.0403 49.5818C18.1371 49.4435 17.5014 48.6381 17.3892 48.4378C14.8341 43.8737 16.5237 39.8812 21.7266 39.0528C17.9338 36.1598 13.379 30.8584 13.8007 25.758C13.9009 24.5476 14.3246 22.9242 15.8983 23.4972L33.5775 29.5605L33.3281 28.85C30.772 28.9251 27.8597 27.4349 27.0904 24.8769C26.1825 21.8577 28.5389 19.7284 31.4158 19.6285C30.2515 15.5563 31.9848 8.40803 37.0204 8.01503Z" fill="black"/>
<path d="M59.2012 75.3778C58.1177 75.9748 56.8495 76.5848 55.6779 76.9798C52.1071 78.1829 47.8762 78.1792 44.3074 76.9798C43.088 76.5701 41.8242 75.9274 40.7043 75.2976C38.8661 74.2645 36.436 72.4504 35.274 70.6771C34.9601 70.1979 34.6716 69.4089 35.4763 69.2269C36.28 69.0453 36.7712 70.1632 37.2587 70.6941C44.2597 78.3184 56.0171 78.1315 62.9253 70.4927C63.3864 69.9829 63.919 68.7117 64.7671 69.3692C65.4255 69.8794 64.8379 70.5478 64.4836 71.0103C63.1874 72.7008 61.0604 74.3537 59.2012 75.3778Z" fill="black"/>
<path d="M44.3076 76.9801L43.2561 79.7331C42.763 80.276 42.0554 79.9795 41.7412 79.4269L40.7041 75.2979C41.8243 75.9276 43.0882 76.57 44.3076 76.9801Z" fill="white"/>
<path d="M55.6777 76.98C56.8494 76.5853 58.1176 75.975 59.2011 75.3779C59.3534 75.4554 59.2535 75.6481 59.2288 75.7649C59.0311 76.6932 58.6538 78.4345 58.3239 79.2666C58.0418 79.9785 57.1653 80.3751 56.6861 79.6158C56.2641 78.9467 56.046 77.7206 55.6777 76.98Z" fill="white"/>
<path d="M60.8622 54.4124C61.34 54.8909 60.1189 55.2946 60.2388 54.594C60.2832 54.3339 60.6819 54.2318 60.8622 54.4124Z" fill="white"/>
<path d="M39.2032 54.4124C39.3835 54.2318 39.7822 54.3339 39.8266 54.594C39.9465 55.2946 38.7254 54.8909 39.2032 54.4124Z" fill="white"/>
</svg>
