<svg width="100" height="100" viewBox="0 0 100 100" fill="none" xmlns="http://www.w3.org/2000/svg">
<path d="M88.0972 66.2301C87.9467 53.3086 83.7485 35.1936 74.1351 25.9157C73.6208 25.4193 73.8439 22.4404 74.1351 21.6044C75.6174 17.349 75.7878 11.3114 74.7168 6.92348C74.6129 6.49773 73.1393 3.45868 72.8552 3.31136C72.5954 3.17688 69.8654 3.96688 69.481 4.12704C66.6862 5.29245 60.4095 9.13062 59.0095 11.8172C58.8587 12.1068 54.9513 11.5986 50.2831 11.3513C45.4536 11.0952 40.7834 11.7084 40.6258 11.4679C38.7406 8.5883 32.9876 4.35411 29.6886 3.42794C29.4902 3.37218 26.8276 3.01401 26.7797 3.07855C26.5857 3.34008 25.5022 5.19108 25.3835 5.52526C23.7794 10.0392 24.7424 16.7657 26.3144 21.255C26.526 21.8589 24.9438 25.8335 24.1036 26.7313C15.9407 35.4535 12.329 52.0175 12.003 63.6668C11.837 69.5979 12.0739 78.2846 15.959 83.125C16.0268 83.2098 24.9182 93.495 38.0658 95.7086C76.5773 102.193 84.389 83.1544 84.4902 83.0084C88.0409 77.8876 88.1674 72.2525 88.0972 66.2301Z" fill="#8B5B3D"/>
<path d="M58.6358 12.6045C58.9158 13.2023 59.4824 15.0617 59.5616 15.7216C59.9217 18.7164 57.7814 22.9935 54.5813 23.5047C53.5545 23.669 53.9905 22.7215 53.9244 22.1396C53.8414 21.4108 52.8733 20.5843 52.2379 20.2988C51.3522 19.9007 51.2128 20.1724 50.9271 20.9989C50.2633 22.9188 51.1632 24.9374 53.1051 25.5923C53.5276 25.7349 54.4315 25.6825 54.4315 26.2481C54.4315 27.0824 53.0177 26.611 52.5797 26.4394C50.5117 25.6298 49.2626 23.326 49.823 21.1449C48.8334 22.1143 48.7659 23.9582 49.2997 25.1682C49.5514 25.7382 50.1348 26.2728 50.5917 26.6982C50.8633 26.951 51.2317 26.9706 51.0765 27.4396C50.9638 27.7798 50.2222 27.7241 49.9171 27.695C48.4575 27.5568 46.0199 26.4536 44.7678 25.6649C41.1695 23.3987 39.4507 20.169 40.2295 15.8652C40.3573 15.1584 40.6333 13.4824 40.8199 12.7846C41.1186 12.9962 42.171 12.4609 42.5297 12.4241C43.5632 12.3177 43.7153 11.9983 44.5093 11.5229C46.0112 10.6238 48.1656 10.7704 49.7282 11.5229C50.8643 12.07 50.8032 12.9674 52.2477 12.8745C52.7275 12.8438 53.6912 12.4613 54.1373 12.3339C54.9623 12.0984 55.2875 12.072 56.1169 12.2437C57.2301 12.4748 57.4831 13.2462 58.6358 12.6045Z" fill="#361F11"/>
<path d="M83.0108 82.8307C82.9801 83.0827 82.2904 83.8721 82.0829 84.1154C72.4765 95.3683 51.7423 97.0163 38.1493 94.43C30.2682 92.9304 21.9538 89.4987 17.0352 82.9104C17.0173 82.8634 17.0207 82.8151 17.0197 82.7665C17.0136 82.4316 17.1722 81.7163 17.2427 81.353C17.4583 80.242 17.8255 78.9827 18.252 77.9352C20.9864 71.2175 30.7251 69.3817 36.274 65.6936C40.9348 62.596 41.8114 56.3257 43.8976 51.5073C44.9237 49.1373 48.2497 47.2582 50.7976 47.6735C52.8727 48.0117 55.2235 49.4525 56.1028 51.409C58.3879 56.494 58.9918 62.6535 64.0771 65.8858C69.4843 69.3226 78.9128 71.3418 81.6767 77.6521C82.1156 78.6546 82.4909 79.8964 82.7233 80.9685C82.8148 81.3912 83.0567 82.4536 83.0108 82.8307Z" fill="#C68656"/>
<path d="M70.8997 21.9129C70.8106 21.9308 70.7316 21.9136 70.6486 21.8798C70.1567 21.6798 69.193 20.9341 68.6386 20.6201C66.8614 19.6132 64.9874 18.7658 63.084 18.0295C64.8082 14.4468 67.49 10.7552 71.3775 9.40332C71.5863 9.4486 72.1792 11.6767 72.2298 12.0156C72.7268 15.3277 71.9055 18.7793 70.8997 21.9129Z" fill="#C68656"/>
<path d="M36.9461 18.0625C35.281 18.6318 33.7059 19.4198 32.1396 20.2122L29.1946 21.9787C28.7566 20.6342 28.3193 19.2789 28.0595 17.8841C27.5331 15.0596 27.4096 12.0652 28.6179 9.39746C30.9751 10.0989 32.9595 11.9574 34.4448 13.8614C35.445 15.1437 36.3013 16.5683 36.9461 18.0625Z" fill="#C68656"/>
<path d="M10.0365 70.0572C9.62349 56.3366 12.6761 38.3912 21.2514 27.3416C22.3136 25.9728 23.5053 24.7293 24.7622 23.5427C24.1056 21.9018 23.5991 20.1904 23.2654 18.4502C22.3888 13.8768 22.3459 7.47633 24.3971 3.21308C25.3318 1.26984 26.1038 0.751166 28.2987 1.14752C32.5948 1.92333 38.7885 6.13082 41.6849 9.36788C41.8894 9.59663 42.108 9.90074 42.2696 10.1636C42.7164 9.98623 43.123 9.70476 43.5653 9.51554C45.9384 8.50049 48.846 8.68769 51.0834 9.96494C51.326 10.1035 52.0471 10.6766 52.2246 10.688C52.4277 10.7012 52.9352 10.4931 53.2068 10.4454C54.679 10.189 55.9632 10.3353 57.402 10.685C58.889 8.4613 61.0977 6.65118 63.295 5.14721C65.4484 3.6733 68.195 2.12201 70.7092 1.40635C73.5104 0.609249 74.5696 0.82449 75.782 3.51314C77.9738 8.37446 77.6428 15.5774 76.2651 20.6448C75.9966 21.6322 75.6409 22.5793 75.32 23.5481L75.4148 23.716C79.524 27.4055 82.4187 32.4405 84.5137 37.515C88.1677 46.3646 89.877 56.3791 89.9938 65.9491C90.0022 66.6532 90.0019 67.3632 89.9938 68.0673C89.931 73.5122 89.7623 77.6616 86.9935 82.4891C80.384 94.0117 64.7162 98.2699 52.257 98.5575C51.8099 98.5679 51.3588 98.5527 50.9117 98.5575C50.3154 98.5639 49.7142 98.5639 49.1176 98.5575C48.6702 98.5527 48.2194 98.5679 47.7723 98.5575C36.4221 98.2936 22.8696 94.8274 15.3532 85.7836C15.2952 85.7137 15.2665 85.6241 15.1609 85.591C15.1464 85.5481 15.1177 85.5038 15.0968 85.4626C15.0526 85.3751 14.9956 85.3102 14.9045 85.27C14.89 85.2271 14.8613 85.1828 14.8404 85.1416C14.7961 85.0541 14.7391 84.9892 14.648 84.949C14.5805 84.7436 14.0548 84.0299 13.879 83.8579L13.6226 83.4727C13.5312 83.2612 13.4245 83.196 13.3662 83.0875C13.3446 83.0473 13.3297 83.0071 13.302 82.9591C13.2163 82.8111 13.1313 82.6584 13.0456 82.5097C12.9322 82.3127 12.9393 82.4063 12.9174 82.3813C12.8961 82.3573 12.7537 81.962 12.6609 81.8035C12.6289 81.7488 12.6549 81.6339 12.5327 81.6109C12.5125 81.5498 12.4821 81.517 12.4686 81.4825C12.3691 81.2284 12.2625 81.0193 12.1484 80.7763C12.0752 80.6202 12.0549 80.5536 11.9561 80.3911C11.9395 80.3641 11.9625 80.284 11.892 80.2627C11.8984 80.1238 11.7435 79.7099 11.6355 79.6207C11.6585 79.5362 11.5886 79.4791 11.5714 79.4281C11.4344 79.0226 11.2833 78.6158 11.1554 78.2083C11.0272 77.7994 10.5234 75.4852 10.4181 75.3841C10.4134 75.2993 10.4249 75.2122 10.4181 75.1274C10.3709 74.5327 10.2676 73.9542 10.2258 73.3301C10.2187 73.224 10.2325 73.1152 10.2258 73.0091C10.2126 72.8063 10.1721 72.6063 10.1617 72.4313C10.1566 72.3461 10.1664 72.2596 10.1617 72.1745C10.1462 71.8998 10.1084 71.5862 10.0976 71.3399C10.0922 71.2121 10.1023 71.0827 10.0976 70.9547C10.0895 70.6563 10.0446 70.3201 10.0365 70.0572ZM17.0201 82.7669C17.0211 82.8159 17.0177 82.8642 17.0356 82.9108C21.9542 89.4991 30.2686 92.9311 38.1497 94.4304C51.7427 97.0167 72.4769 95.3687 82.0833 84.1158C82.2912 83.8725 82.9808 83.0831 83.0112 82.8311C83.185 82.7915 83.3466 82.484 83.4478 82.3377C86.9982 77.2166 86.9867 72.1346 86.9169 66.1123C86.7664 53.1907 83.2717 35.5252 73.6582 26.2468C73.0762 25.6849 72.0848 25.0652 71.9431 24.1782C71.8098 23.346 72.563 22.1066 72.8542 21.2706C74.3364 17.0152 74.7613 11.3459 73.6903 6.95799C73.5864 6.53224 72.9156 4.31023 72.6311 4.16291C72.3713 4.02843 70.3917 4.77856 70.0073 4.93906C67.2125 6.10447 61.3346 9.74869 59.9346 12.4353C59.6276 13.0243 59.6634 13.4497 58.9855 13.8271C57.8329 14.4688 57.0885 13.7683 55.975 13.5375C55.1456 13.3655 54.3655 13.3034 53.5405 13.5389C53.0944 13.6663 52.7499 13.9741 52.2701 14.0048C50.826 14.0978 50.4059 13.0351 49.2698 12.488C47.7072 11.7355 45.6921 11.7453 44.1906 12.6445C43.397 13.1199 43.066 13.842 42.0328 13.9484C41.6741 13.9852 41.1524 13.9102 40.8542 13.6987C40.4219 13.3922 40.1911 12.5471 39.8814 12.0738C37.9959 9.19453 31.7721 5.30027 28.4732 4.37443C28.2748 4.31868 27.6418 4.12709 27.4893 4.13791C27.3961 4.14467 27.39 4.17372 27.3425 4.23792C27.1485 4.49946 26.8762 5.24351 26.7574 5.57735C25.1533 10.0913 25.6341 16.8172 27.2058 21.3061C27.4174 21.9099 28.1519 23.3082 28.1611 23.815C28.1833 25.0571 26.0279 26.5368 25.1877 27.4342C17.0252 36.1567 13.4353 52.8528 13.109 64.5022C12.943 70.4333 12.9015 77.743 16.7866 82.5834C16.8548 82.6682 16.876 82.7763 17.0201 82.7669Z" fill="black"/>
<path d="M63.1999 45.2979C66.0103 44.9789 68.7117 47.3962 67.6019 50.2859C66.5309 53.0746 62.4906 53.5412 60.5893 51.3442C58.5566 48.9955 60.2964 45.6277 63.1999 45.2979Z" fill="black"/>
<path d="M35.7777 45.2978C38.5196 45.0035 41.0644 47.2654 40.1946 50.1081C39.3281 52.9407 35.2419 53.5712 33.2595 51.508C31.01 49.1664 32.7284 45.6249 35.7777 45.2978Z" fill="black"/>
<path d="M32.4515 79.5022C31.8317 79.2555 31.2459 79.1207 30.5714 79.1734C30.3588 79.19 30.1405 79.2842 29.9289 79.2994C27.9567 79.4393 27.429 76.6463 29.7565 76.1746C32.9522 75.5272 36.6683 77.9394 38.1499 80.6936C39.0953 82.4507 38.4495 84.4331 36.1891 83.8776C34.4865 83.459 32.3422 81.3657 32.4515 79.5022Z" fill="black"/>
<path d="M67.58 79.5022C67.5334 79.5745 67.5901 79.9567 67.5702 80.1023C67.2935 82.1507 63.2195 85.4833 61.7514 83.3019C60.476 81.4066 63.5202 78.4024 64.9744 77.4373C66.5128 76.4166 69.2013 75.5357 70.9674 76.3794C71.9614 76.8541 72.1241 78.3571 71.2188 79.0076C70.4167 79.5837 69.6558 79.0914 68.7573 79.1731C68.6024 79.1877 67.6215 79.4377 67.58 79.5022Z" fill="black"/>
<path d="M63.837 46.5774C64.6647 46.3906 64.6428 47.56 63.838 47.3853C63.4135 47.2931 63.4058 46.6747 63.837 46.5774Z" fill="white"/>
<path d="M35.9663 46.578C36.8291 46.3793 36.8075 47.5778 35.9663 47.3845C35.557 47.2906 35.5618 46.6712 35.9663 46.578Z" fill="white"/>
</svg>
