<svg width="100" height="100" viewBox="0 0 100 100" fill="none" xmlns="http://www.w3.org/2000/svg">
<path d="M86.602 41.9442C86.2256 41.7967 82.407 33.5801 74.6606 27.4301C66.7923 21.1836 55.2814 18.9271 55.4267 18.4845C55.871 17.1324 56.5164 13.3464 55.9244 12.0627C55.5022 11.1477 54.1725 11.0631 53.6235 11.9066C53.1521 12.6313 53.5373 13.2276 53.5332 13.9745C53.5312 14.3507 53.4837 15.1 53.4109 15.4923C53.2287 16.4761 52.8376 17.4384 52.7303 17.5075C52.6937 17.5308 51.9564 17.4942 51.9283 17.4665C51.8729 17.4124 51.9423 16.6891 51.8247 15.8459C51.461 13.2324 49.5724 10.1214 46.9909 9.13867C45.2721 8.48417 44.3037 10.3053 45.4017 11.2911C45.6628 11.526 46.1923 11.7101 46.5243 11.9313C48.376 13.1656 49.1205 15.2544 49.2853 17.386C49.3253 17.905 49.2583 17.9474 49.1366 18.5245C49.1137 18.6337 48.324 17.386 48.324 17.386C46.7417 15.4595 44.0316 13.5186 41.4176 13.638C39.7864 13.7126 39.65 15.9894 41.1913 16.3084C42.5525 16.5901 43.3295 16.5213 44.5385 17.4476C44.6534 17.5356 45.844 19.3256 45.6724 19.4881C33.3373 20.3542 21.8011 26.8263 16.503 38.2931C15.9209 39.5528 15.4707 40.575 14.1331 41.2141C11.8438 42.3081 10.2163 43.2316 8.11677 44.8655C-1.57253 52.4043 0.448741 67.3993 12.1275 71.6114C13.6135 72.1475 15.2341 72.4963 16.6852 72.8893C17.8792 73.2128 18.3981 74.569 19.0551 75.5364C24.6455 83.7656 38.2003 89.6256 47.8605 90.3243C59.2056 91.1448 75.131 84.6926 81.5883 75.0801C82.2094 74.1555 82.6107 73.2535 83.8673 72.9807C85.7686 72.5678 87.8544 71.4173 89.7014 70.6074C103.01 64.7696 99.1815 46.8735 86.602 41.9442Z" fill="#8B5B3D"/>
<path d="M83.2445 71.6739C81.9883 71.9467 81.6563 73.0678 81.0352 73.9927C74.578 83.6052 59.1506 89.7343 47.8055 88.9138C38.1453 88.2151 24.9853 82.7679 19.395 74.5383C18.7376 73.571 18.204 72.0775 17.01 71.754C16.8616 71.69 16.8719 71.6191 16.8343 71.4901C15.3938 66.5662 16.7926 60.244 20.7363 56.8411C20.9947 56.6179 22.2783 55.7936 22.331 55.7115C22.4568 55.516 22.7022 54.168 22.8167 53.7921C24.664 47.7223 28.7267 42.184 34.6011 39.5297C39.6931 37.229 45.5825 37.5504 50.0479 41.027C53.8314 38.0351 58.882 37.3464 63.4619 38.7571C69.9495 40.7552 74.9577 46.6741 77.0183 53.0093C77.2159 53.6172 77.5078 55.2637 77.7334 55.6612C77.822 55.8169 79.1435 56.6648 79.4378 56.9216C82.6747 59.7439 84.1381 64.7037 83.7244 68.9073C83.6325 69.8435 83.3775 70.7469 83.2445 71.6739Z" fill="#F3C8AA"/>
<path d="M85.4072 67.4237C86.3623 65.11 87.1058 62.6953 87.5444 60.2225C88.1481 56.8171 88.2571 53.1065 87.7984 49.6741C87.662 48.654 87.2521 47.3933 87.1759 46.4475C87.167 46.3383 87.1178 46.2106 87.2866 46.2568C87.5926 46.3407 88.8341 47.2125 89.1288 47.46C95.7163 52.9863 93.8994 65.0124 85.4072 67.4237Z" fill="#F3C8AA"/>
<path d="M13.0852 46.1748C11.2058 53.1484 11.7841 60.6396 14.3664 67.3438C10.4667 66.2124 7.72281 62.3847 7.10169 58.4601C6.33496 53.6129 8.43792 48.2109 13.0852 46.1748Z" fill="#F3C8AA"/>
<path d="M54.0911 68.9612C53.9561 71.3194 53.3476 74.1588 52.0107 76.1401C49.6886 79.5818 47.6971 75.993 46.8815 73.6539C46.3616 72.1632 46.0211 70.5457 46.002 68.9615C47.3122 68.8544 48.4478 68.3635 49.3266 67.3588C49.6114 67.0333 49.7936 66.6307 50.0855 66.3154C50.8587 67.9411 52.3365 68.8082 54.0911 68.9612Z" fill="#EA7368"/>
<path d="M49.2855 17.3862C49.3255 17.9052 49.3901 17.886 49.2988 18.545C49.2834 18.6555 49.228 18.7781 49.1662 18.9102L48.3242 17.3862H49.2855Z" fill="black"/>
<path d="M51.9287 17.4658L52.7303 17.5069L51.9287 19.15V17.4658Z" fill="black"/>
<path d="M46.0024 69.5091C44.8593 69.6025 43.9032 69.418 42.8503 68.9364C42.1933 68.6355 41.2369 68.2025 41.6881 67.3145C42.195 66.317 43.3234 67.334 43.978 67.5668C46.523 68.4719 48.7182 67.1546 48.9661 64.4576C47.6155 64.1902 44.901 63.0924 44.2754 61.8159C43.4314 60.0941 45.9555 59.7758 47.1068 59.5889C49.2706 59.2373 53.2045 59.2695 55.236 60.1434C55.839 60.4029 56.0321 60.8804 55.9145 61.5116C55.6688 62.8336 52.3759 64.2775 51.1302 64.4596C51.3258 67.0427 53.3942 68.3901 55.8708 67.6421C56.6016 67.4213 57.8363 66.3225 58.3693 67.2707C58.8324 68.0946 58.037 68.5434 57.4053 68.858C56.3514 69.3831 55.25 69.6101 54.0912 69.5091C52.3369 69.3561 50.8588 68.4893 50.0856 66.863C49.7937 67.1779 49.6115 67.5808 49.3267 67.9064C48.4479 68.9111 47.3126 69.4019 46.0024 69.5091Z" fill="black"/>
<path d="M44.6407 17.7071C45.016 17.7389 45.2946 17.9936 45.5636 18.2664C45.7633 18.4687 46.9744 20.03 46.8028 20.1926C34.4674 21.0583 22.3732 27.757 17.0755 39.2238C16.4934 40.4835 16.4537 41.6745 15.1161 42.3139C12.8268 43.4079 11.1436 43.9026 9.0441 45.5361C-0.6452 53.0748 1.04483 66.501 12.7236 70.7135C14.2096 71.2496 15.5584 71.3615 17.0099 71.7545C18.2039 72.078 18.7375 73.5711 19.3948 74.5389C24.9852 82.7681 38.1451 88.2156 47.8054 88.9143C59.1505 89.7348 74.5782 83.6057 81.0351 73.9932C81.6562 73.0686 81.9881 71.9472 83.2444 71.6744C85.1457 71.2616 86.552 71.1096 88.3989 70.2997C101.708 64.4622 99.2716 48.6696 86.9827 43.1129C86.2402 42.777 84.6391 42.3368 84.126 41.8032C83.7633 41.4259 83.4262 40.1782 83.1784 39.6247C78.0844 28.2448 66.5567 21.5314 54.412 20.2724C54.7484 19.4132 55.2447 18.5851 55.5332 17.7071C68.6898 19.1592 81.406 27.2645 86.2279 39.8989C93.2513 42.2629 99.7181 48.785 99.9833 56.5185C100.006 57.1641 100.006 57.8778 99.9833 58.5231C99.8151 63.4322 97.0285 67.872 93.121 70.6971C90.4014 72.6633 87.2715 73.8087 83.9684 74.3636C80.3046 80.7104 73.6282 85.2005 66.9837 87.99C55.2191 92.9289 44.3652 92.8557 32.6532 87.8066C26.1816 85.0164 19.6652 80.5591 16.1071 74.3424C9.06803 73.35 2.40396 68.6816 0.534129 61.5878C-2.02348 51.8836 4.96123 42.8767 13.8667 39.9002C18.3471 28.0436 29.8403 20.207 42.0633 18.0532C42.7661 17.9293 43.9758 17.651 44.6407 17.7071Z" fill="black"/>
<path d="M40.6883 51.0936C43.6828 54.0875 38.9569 58.4811 35.6326 55.7145C31.9903 52.6837 37.3424 47.7489 40.6883 51.0936Z" fill="black"/>
<path d="M61.6025 50.0461C64.0911 49.7472 66.432 51.9719 65.3986 54.4886C64.2213 57.3565 59.5289 57.1901 58.6542 54.1559C58.0693 52.1263 59.6024 50.286 61.6025 50.0461Z" fill="black"/>
<path d="M38.2128 51.7676C37.8792 52.0966 37.2492 51.68 37.5849 51.2586C37.8826 50.8852 38.5632 51.4222 38.2128 51.7676Z" fill="white"/>
<path d="M62.0768 51.1614C62.8155 50.9386 62.901 51.9916 62.1445 51.8676C61.7692 51.8064 61.7582 51.2576 62.0768 51.1614Z" fill="white"/>
</svg>
