<svg width="100" height="100" viewBox="0 0 100 100" fill="none" xmlns="http://www.w3.org/2000/svg">
<path d="M67.8122 15.018C67.1903 16.1475 65.6402 16.4457 65.9544 17.9946C66.024 18.3369 67.1136 19.591 67.4147 19.9229C71.6835 24.6304 80.4483 30.7919 86.407 32.9746C91.2547 40.497 93.2364 49.497 91.5736 58.3724C88.6689 73.8764 75.4266 85.0486 60.2456 87.7472C56.5762 88.3996 53.1654 88.4511 49.472 88.4336C46.2646 88.4183 43.4402 88.3643 40.2644 87.8328C21.4486 84.6841 6.32038 68.8741 7.99159 49.0926C8.47647 43.3533 10.5982 37.8202 13.6127 32.9743C18.4878 31.1997 24.6054 27.038 28.6052 23.7089C30.2038 22.3783 32.7883 20.1137 33.8981 18.4037C34.7755 17.0519 33.163 16.1522 32.3867 15.3072C32.3049 15.2182 32.2063 15.1589 32.2079 15.0177C33.5718 14.772 35.1284 14.1649 36.5313 13.8267C45.9576 11.5553 53.7626 11.534 63.2008 13.7546C64.7568 14.1212 66.2773 14.6586 67.8122 15.018Z" fill="#FBE3E3"/>
<path d="M32.2077 15.0178C32.2061 15.1589 32.3047 15.2183 32.3865 15.3073C33.1628 16.1523 34.7753 17.0516 33.8979 18.4037C32.7881 20.1134 30.2039 22.3784 28.605 23.7089C24.6052 27.0381 18.4876 31.1994 13.6125 32.9744C13.3551 33.0681 12.6621 33.3494 12.4059 33.3897C11.2115 33.5783 10.6754 33.0109 10.4623 31.9073C9.48255 26.8298 13.0103 18.7551 15.6725 14.4469C16.1683 13.6444 17.2267 11.901 17.872 11.3114C18.711 10.5448 21.3882 11.0301 22.4906 11.2187C25.8623 11.7951 29.0806 13.1854 31.9244 15.0549C32.042 15.1414 32.1319 15.0315 32.2077 15.0178Z" fill="#F5B6B4"/>
<path d="M86.4064 32.9745C80.4473 30.792 71.6825 24.6303 67.414 19.9228C67.1129 19.5908 66.0233 18.3367 65.9538 17.9945C65.6392 16.4459 67.1894 16.1474 67.8116 15.0179C67.8942 15.0373 67.9754 15.1391 68.0936 15.0541C70.9571 13.1992 74.1472 11.8003 77.5283 11.2185C78.5861 11.0364 80.7385 10.6836 81.6992 11.0383C82.2955 11.2585 83.1242 12.5566 83.5105 13.1202C86.5312 17.5295 90.0814 25.4519 89.7251 30.8501C89.6343 32.2269 89.3457 33.664 87.6133 33.3898C87.2146 33.3268 86.856 33.0095 86.5471 32.9311C86.4451 32.9052 86.4133 32.977 86.4064 32.9745Z" fill="#F5B6B4"/>
<path d="M49.4903 49.3654C56.1105 49.1152 66.1066 52.02 67.0823 59.7737C68.131 68.1083 57.9524 72.4488 51.1297 72.7845C44.1959 73.1255 33.2565 70.1933 32.8528 61.7151C32.4593 53.4424 42.7228 49.6211 49.4903 49.3654Z" fill="#F5B6B4"/>
<path d="M44.0863 57.0051C47.3451 56.79 47.3448 64.1434 44.1353 64.2055C40.9788 64.2667 40.9501 57.2122 44.0863 57.0051Z" fill="#EA7368"/>
<path d="M55.616 57.0033C55.8222 56.983 56.026 57.0317 56.2222 57.0816C58.9918 57.7871 58.8401 64.1477 55.8827 64.2052C52.7981 64.2652 52.4667 57.3152 55.616 57.0033Z" fill="#EA7368"/>
<path d="M94.9841 50.7865C95.0053 51.6662 95.0053 52.5749 94.9841 53.4549C94.4777 74.4893 75.3692 90.4923 55.0551 91.243C51.8565 91.361 48.1622 91.3657 44.9648 91.243C31.0338 90.709 17.1178 82.86 10.0954 70.7841C6.94015 65.3587 5.55445 60.1694 5.03493 53.9214C4.96441 52.8557 5.02026 50.3834 5.03368 50.2469C5.17222 48.8433 5.26239 47.483 5.49111 46.0862C6.11422 42.2809 7.3851 38.616 9.07316 35.1676L9.03728 34.9959C7.21193 33.1547 7.27433 30.2353 7.56888 27.8289C8.23974 22.3466 11.1463 15.837 14.2749 11.3178C14.7249 10.6677 16.0922 8.70315 16.7087 8.41648C18.9881 7.35725 24.3796 8.56824 26.8021 9.28553C28.83 9.88572 30.9568 10.6764 32.6866 11.9027C35.5857 11.0308 38.5586 10.3779 41.5538 9.91039C45.3689 9.31489 49.2096 8.95296 53.0728 9.24994C57.8992 9.62123 62.7054 10.5652 67.3452 11.8861C69.3599 10.5427 71.7313 9.68025 74.0675 9.0532C76.5103 8.39774 80.6428 7.53962 83.0522 8.3153C83.7318 8.53421 84.1315 9.155 84.5621 9.68899C86.4171 11.9898 88.117 14.973 89.3523 17.6604C91.1845 21.6459 94.1507 30.1278 91.6991 34.1224C91.5496 34.366 90.938 35.0065 90.9471 35.167C90.9574 35.3525 91.7512 36.8401 91.8982 37.1799C93.751 41.463 94.8711 46.1 94.9841 50.7865ZM13.6125 32.9742C10.598 37.8201 8.47594 43.3529 7.99137 49.0925C6.32016 68.8737 21.4484 84.6837 40.2648 87.8324C43.4406 88.3638 46.265 88.4179 49.4724 88.4332C53.1658 88.4507 56.5769 88.3991 60.246 87.7468C75.4269 85.0481 88.669 73.876 91.574 58.3719C93.2367 49.4965 91.2548 40.4965 86.4074 32.9742C86.4143 32.9767 86.4461 32.9049 86.5479 32.9308C86.8568 33.0092 87.2153 33.3265 87.614 33.3895C89.3464 33.6637 89.635 32.2263 89.7258 30.8498C90.0822 25.4516 86.5319 17.5292 83.5112 13.1199C83.1249 12.5563 82.2962 11.2582 81.6999 11.038C80.7389 10.6836 78.5868 11.0361 77.5291 11.2182C74.148 11.8 70.9578 13.1989 68.0943 15.0538C67.9761 15.1388 67.8953 15.037 67.8123 15.0176C66.2774 14.6582 64.7569 14.1208 63.2005 13.7548C53.7627 11.5342 45.9574 11.5554 36.5311 13.8269C35.1279 14.1651 33.5712 14.7722 32.2077 15.0179C32.1322 15.0317 32.042 15.1416 31.925 15.0551C29.0809 13.1855 25.8629 11.7953 22.4912 11.2188C21.3885 11.0302 18.7116 10.5449 17.8726 11.3116C17.227 11.9011 16.1689 13.6445 15.6731 14.4471C13.0109 18.7552 9.48316 26.8299 10.4629 31.9075C10.676 33.0111 11.2121 33.5785 12.4065 33.3898C12.6618 33.3492 13.3548 33.0679 13.6125 32.9742Z" fill="black"/>
<path d="M59.0023 42.0068C60.8853 41.7673 62.9453 42.6757 63.395 44.6421C64.2156 48.2304 59.6123 50.2246 57.0359 47.9038C54.8114 45.8996 56.1675 42.3672 59.0023 42.0068Z" fill="black"/>
<path d="M39.6137 42.0066C45.4782 41.2122 45.4779 49.3728 39.9647 48.9016C35.5502 48.5244 35.509 42.5628 39.6137 42.0066Z" fill="black"/>
<path d="M60.2272 43.2318C60.6784 43.6836 59.7579 44.2757 59.4871 43.7195C59.258 43.2483 59.9713 42.9754 60.2272 43.2318Z" fill="white"/>
<path d="M40.0453 43.1554C40.5979 43.0452 40.8447 43.6738 40.4069 43.8818C39.8031 44.1685 39.498 43.2644 40.0453 43.1554Z" fill="white"/>
</svg>
