<svg width="100" height="100" viewBox="0 0 100 100" fill="none" xmlns="http://www.w3.org/2000/svg">
<path d="M34.5242 2.98042C39.0227 2.69484 42.1015 8.4038 43.401 11.9897C45.5932 18.0397 46.0219 25.0509 45.4347 31.4304C45.3357 32.5053 44.8149 34.09 45.4733 35.0043C46.0901 35.8607 46.9578 35.557 47.8282 35.5327C48.7459 35.507 49.6746 35.4587 50.5913 35.4666C51.5364 35.4748 52.8328 35.7032 53.7396 35.6011C55.7486 35.3751 54.8727 32.5258 54.7573 31.2331C54.071 23.5528 55.0107 10.9611 60.7621 5.19182C66.5529 -0.616785 71.8711 6.11467 74.2448 11.3432C78.2783 20.2265 78.5868 31.6341 76.284 41.0139C76.0662 41.9011 75.5892 42.61 76.195 43.4777C76.9257 44.5245 78.0595 45.6435 78.8755 46.7068C86.803 57.0354 92.423 71.7126 84.0893 83.5644C75.2115 96.1897 55.0966 98.3915 40.9475 96.4722C29.9124 94.9754 17.8117 89.8438 13.5467 78.7659C9.19035 67.4504 14.7233 55.1839 21.6732 46.276C22.3933 45.3528 23.4336 44.3272 24.0623 43.4123C24.1623 43.2667 24.2664 43.0274 24.2904 42.8527C24.3866 42.158 23.7881 40.5256 23.6059 39.7397C21.5424 30.8232 22.2269 19.3396 26.1227 10.9946C27.6164 7.7953 30.6246 3.228 34.5242 2.98042Z" fill="white"/>
<path d="M9.00034 68.9639C9.20854 69.0006 9.11745 68.8592 9.12944 68.7349C9.18525 68.1678 9.19998 67.5911 9.26298 67.0268C10.3029 57.7278 15.2747 49.251 21.2007 42.2525C18.6034 31.9995 18.915 19.7187 23.3652 10.0091C26.2683 3.67523 32.6724 -3.4507 40.0062 1.85625C47.605 7.3553 49.0449 21.7794 48.4532 30.3791C48.407 31.0534 48.2895 31.729 48.2542 32.4049C48.2765 32.4964 48.5309 32.5114 48.6152 32.5173C49.6452 32.5881 50.7334 32.4734 51.7693 32.5145C51.9925 32.4943 51.9453 32.1964 51.936 32.019C51.8864 31.0558 51.7196 30.0453 51.6679 29.069C51.2662 21.463 52.5527 11.4302 57.0659 5.10726C62.3845 -2.34397 69.6834 -1.10575 74.5695 5.96094C79.8035 13.531 81.2972 25.4489 80.424 34.4513C80.1703 37.0654 79.6604 39.6555 78.9913 42.1871C85.3128 49.7609 90.8359 59.2027 91.0591 69.3577C91.0725 69.9666 91.0725 70.5881 91.0591 71.1966C90.8448 80.9277 85.6611 88.1731 77.7013 93.2647C66.2834 100.568 47.7721 101.404 34.8643 98.2885C22.629 95.3354 11.1152 87.3684 9.33763 74.0442C9.2421 73.3282 9.22361 72.6022 9.12841 71.8862C9.11197 71.764 9.21231 71.6195 9 71.6565V71.3281C9.18936 71.3585 9.12156 71.2812 9.13115 71.1312C9.16094 70.6637 9.1469 70.0936 9.13115 69.6207C9.12533 69.4447 9.20169 69.2423 9 69.2923V68.9639H9.00034ZM34.5239 2.98044C30.6243 3.22802 27.6161 7.79567 26.1228 10.9943C22.2273 19.3393 21.5425 30.8229 23.6059 39.7394C23.7878 40.5253 24.3863 42.158 24.2904 42.8524C24.2661 43.0271 24.1624 43.2664 24.0624 43.412C23.4333 44.3269 22.3934 45.3525 21.6733 46.2757C14.723 55.1833 9.19039 67.4501 13.5468 78.7656C17.8117 89.8435 29.9124 94.9751 40.9475 96.4719C55.0966 98.3912 75.2112 96.1894 84.0893 83.564C92.423 71.7123 86.8031 57.0351 78.8755 46.7065C78.0595 45.6432 76.9258 44.5242 76.195 43.4774C75.5893 42.6096 76.0663 41.9008 76.284 41.0136C78.5869 31.6338 78.2783 20.2261 74.2449 11.3429C71.8708 6.11434 66.5529 -0.617107 60.7621 5.1915C55.0103 10.9611 54.0711 23.5528 54.7573 31.2328C54.8727 32.5251 55.7486 35.3748 53.7396 35.6008C52.8329 35.7029 51.5364 35.4745 50.5913 35.4663C49.6746 35.4584 48.746 35.5067 47.8283 35.5323C46.9575 35.5567 46.0898 35.8604 45.4734 35.004C44.8149 34.0893 45.3357 32.5049 45.4347 31.4301C46.022 25.051 45.5936 18.0394 43.401 11.9894C42.1012 8.40348 39.0224 2.69452 34.5239 2.98044Z" fill="#070505"/>
<path d="M62.0941 61.692C67.2617 61.1044 67.686 68.4786 62.6643 68.5711C58.0699 68.6553 57.5607 62.2074 62.0941 61.692Z" fill="#070505"/>
<path d="M37.1482 61.6919C39.8205 61.3879 42.2073 63.8064 41.0478 66.4469C39.8322 69.2151 35.5549 69.2308 34.2838 66.4914C33.2774 64.3221 34.867 61.9515 37.1482 61.6919Z" fill="#070505"/>
<path d="M51.0149 73.9551C51.2255 75.51 52.7941 76.3353 54.2638 76.1874C54.9264 76.1206 55.2555 75.6176 55.9174 75.9134C56.4954 76.1716 56.6047 76.9143 56.1712 77.3732C55.5959 77.982 54.0063 78.0974 53.2218 78.019C52.1764 77.9142 50.7406 77.1979 50.1602 76.3195C48.9874 77.5434 47.5101 78.1659 45.7935 78.0296C45.3419 77.9937 44.4392 77.7245 44.0992 77.4263C43.6362 77.0205 43.6695 76.3011 44.191 75.9617C44.8317 75.5446 45.2203 76.0853 45.8134 76.1713C47.3112 76.3884 48.9846 75.5518 49.1771 73.9554C49.5924 74.3372 50.5714 74.2842 51.0149 73.9551Z" fill="#070505"/>
<path d="M70.0502 39.4741L66.0462 37.6702C65.877 37.5209 66.2016 37.2846 66.2783 37.1124C66.6002 36.3905 66.0476 35.7735 65.2915 35.8625C64.7172 35.9303 64.4018 36.833 64.1635 36.9049C64.0645 36.9347 63.0986 36.6737 63.027 36.62C62.7171 36.3871 63.0362 34.8993 62.111 34.6469C61.2604 34.4151 60.8348 35.2598 60.993 35.9954L57.3793 35.2948L57.1828 33.0755C57.0051 28.6301 58.3963 19.6879 63.0493 17.7258C67.8587 15.6979 70.3984 22.0859 71.0717 25.6828C71.925 30.2433 71.5202 35.0917 70.0502 39.4741Z" fill="#ED9D9C"/>
<path d="M39.198 35.9947C39.4744 35.1685 38.7522 34.274 37.9044 34.7339C37.2633 35.0815 37.4951 35.9399 37.2349 36.494C37.1448 36.6858 36.1939 36.9635 36.0254 36.9059C35.7988 36.8289 35.5231 35.9564 34.9595 35.868C34.2198 35.7516 33.7439 36.267 33.8955 36.998C33.9534 37.2771 34.2661 37.4083 34.2048 37.699L30.299 39.4769C30.1436 39.4745 30.0549 39.1153 30.0062 38.9845C28.1948 34.1172 28.2112 26.2578 30.4103 21.5234C33.3381 15.2196 38.5649 16.5962 41.1129 22.2908C42.8812 26.2434 43.239 30.9535 42.8658 35.2318L39.198 35.9947Z" fill="#ED9D9C"/>
<path d="M51.0152 73.9554C50.5717 74.2845 49.5927 74.3375 49.177 73.9554C49.1671 73.9461 49.1537 73.8242 49.0832 73.7568C48.2285 72.9425 46.3188 71.2341 45.7336 70.34C45.1442 69.4394 46.3085 68.469 47.1382 69.1977C47.4882 69.5494 49.9174 72.1843 50.129 72.1843C50.3115 72.1843 50.6789 71.6324 50.8166 71.4906C51.4021 70.8872 52.5688 69.5559 53.179 69.1254C54.0532 68.5091 55.1592 69.5131 54.2991 70.5743C53.6402 71.3875 52.565 72.2936 51.8014 73.0668C51.5747 73.2966 51.2604 73.7736 51.0152 73.9554Z" fill="#ED9D9C"/>
<path d="M63.0783 62.9372C63.4642 63.3231 62.767 63.9545 62.4328 63.4847C62.1198 63.0447 62.7804 62.6393 63.0783 62.9372Z" fill="white"/>
<path d="M37.8024 62.9389C38.2393 63.3532 37.4822 63.9097 37.1569 63.4864C36.8474 63.083 37.4723 62.6255 37.8024 62.9389Z" fill="white"/>
</svg>
