<svg width="117" height="100" viewBox="0 0 117 100" fill="none" xmlns="http://www.w3.org/2000/svg">
<path d="M20.939 72.9841C19.8243 73.0471 19.1675 73.0877 18.1281 73.3592C18.1148 73.3628 17.9929 73.272 17.8991 73.2853C15.1839 73.6695 12.6125 74.2512 10.0212 75.1396C9.18933 75.4248 7.11767 76.717 6.82814 75.1436C6.62926 74.0642 8.37817 73.6542 9.178 73.3573C11.8987 72.3472 14.692 71.7686 17.5659 71.3891C18.4821 71.2682 19.4785 71.0812 20.3768 71.0139C26.4398 70.5594 34.2759 71.3649 39.6485 74.3748C40.2557 74.7152 42.0694 75.7832 42.1917 76.4314C42.3293 77.1602 41.6428 77.6864 40.95 77.5753C40.6671 77.5299 39.0905 76.3274 38.6177 76.0633C33.6222 73.2708 26.5652 72.6664 20.939 72.9841Z" fill="#877A6F"/>
<path d="M96.743 71.0146C97.5671 71.0748 98.7229 71.1871 99.5539 71.2959C102.264 71.6507 107.24 72.7535 109.615 74.0277C110.732 74.6266 110.267 76.0455 109.2 75.9442C108.651 75.8922 107.439 75.2541 106.817 75.0464C104.239 74.1846 101.687 73.6322 98.9913 73.266C98.0047 73.1318 97.1759 73.0407 96.1804 72.9847C90.512 72.6659 83.5382 73.2676 78.5017 76.0643C77.9844 76.3519 76.4449 77.5251 76.0737 77.5767C75.3547 77.6769 74.7792 77.0717 74.9503 76.3554C75.0922 75.7615 76.7266 74.7878 77.2834 74.4694C82.7142 71.3663 90.5905 70.5651 96.743 71.0146Z" fill="#877A6F"/>
<path d="M23.3756 79.0813C27.817 78.2488 33.7597 78.1534 38.1257 79.3704C39.0115 79.6173 41.1301 80.0887 40.3736 81.4184C39.8391 82.3585 38.7278 81.5858 37.9921 81.3801C34.057 80.2796 28.9259 80.179 24.9033 80.8504C24.7279 80.8797 24.5388 80.7733 24.5935 81.0511C24.3481 80.7827 23.9867 80.9509 23.6542 81.0022C23.1427 81.0812 22.2843 81.2357 21.8162 81.4102C21.6298 81.4794 21.6997 81.6085 21.6892 81.614C21.6724 81.6226 21.5102 81.5119 21.3149 81.5573C20.1251 81.8339 18.2625 82.5447 17.2563 83.2266C16.6167 83.66 15.6125 84.9479 14.8619 83.806C14.2903 82.9367 15.23 82.2779 15.8505 81.819C17.1754 80.839 18.9794 80.1787 20.565 79.7382C21.4583 79.4897 22.4648 79.2523 23.3756 79.0813Z" fill="#877A6F"/>
<path d="M93.7448 79.0818C94.6123 79.2398 95.7524 79.4256 96.5558 79.6447C97.9085 80.0132 100.83 81.2686 101.853 82.2685C103.046 83.4355 101.948 84.7836 100.779 84.0004C99.0674 82.8538 97.8717 81.9767 95.7348 81.5409C95.6035 81.5143 95.4453 81.6215 95.4312 81.6148C95.4207 81.6094 95.4914 81.4869 95.3042 81.411C94.8897 81.2436 93.197 80.8895 92.75 80.8653C92.5918 80.8567 92.6051 80.9611 92.5269 81.0519C92.607 80.7988 92.0573 80.8062 91.9045 80.7835C87.9386 80.1959 82.9946 80.3047 79.1279 81.3805C78.3734 81.5906 77.2172 82.3722 76.7038 81.3684C75.9927 79.9768 78.5887 79.4468 79.5019 79.2222C83.8116 78.1628 89.3866 78.288 93.7448 79.0818Z" fill="#877A6F"/>
<path d="M96.7439 71.0147C90.5914 70.5648 82.715 71.3664 77.285 74.4694C76.7282 74.7879 75.0934 75.7612 74.952 76.3554C74.7808 77.0717 75.3568 77.6769 76.0753 77.5768C76.4465 77.5252 77.9856 76.3515 78.5033 76.0644C83.5399 73.2676 90.5137 72.6663 96.182 72.9848C95.6459 75.1204 94.6648 77.0976 93.7458 79.0822C89.3876 78.2884 83.8122 78.1632 79.5024 79.2222C78.5893 79.4468 75.9933 79.9769 76.7044 81.3684C77.2178 82.3726 78.374 81.5906 79.1285 81.3805C82.9952 80.3047 87.9391 80.1963 91.9051 80.7835C92.0578 80.8062 92.6076 80.7988 92.5275 81.0519C92.0598 81.5961 91.6245 82.4098 91.1591 83.0123C84.7691 91.2789 75.4806 95.9535 65.1192 96.998C50.7184 98.4498 34.5358 94.4856 25.549 82.4888C25.254 82.0953 24.8867 81.3719 24.5948 81.0523C24.5401 80.7745 24.7292 80.881 24.9046 80.8516C28.9272 80.1803 34.0583 80.2808 37.9934 81.3813C38.7291 81.5871 39.8404 82.3597 40.3749 81.4196C41.1314 80.0899 39.0124 79.6185 38.127 79.3717C33.7606 78.1546 27.8183 78.2501 23.3769 79.0826C22.4204 77.1206 21.4443 75.1243 20.9407 72.9852C26.5664 72.6675 33.6234 73.2719 38.6193 76.0648C39.0921 76.3292 40.6687 77.5314 40.9516 77.5768C41.6444 77.6879 42.3309 77.1617 42.1934 76.4329C42.0711 75.7843 40.2573 74.7163 39.6501 74.3763C34.2779 71.3664 26.4414 70.5609 20.3784 71.0154C18.9843 64.7827 19.5969 58.1137 22.2656 52.3148C22.5962 51.5966 23.6523 50.0008 23.8012 49.4438C24.3381 47.4357 21.3556 47.3391 20.0771 46.9748C3.14125 42.1497 -3.54848 20.8444 10.0693 8.58743C24.2142 -4.1437 48.3705 5.36778 49.4239 24.4424C49.4665 25.2134 49.1797 27.3412 49.8564 27.7618C50.5609 28.1991 52.5454 27.7375 53.4082 27.6784C56.8517 27.4429 60.2702 27.4402 63.7137 27.6784C64.571 27.7379 66.643 28.2175 67.3174 27.7199C67.8848 27.3013 67.6457 24.9646 67.6929 24.2499C68.9054 5.84818 91.4877 -3.62613 105.917 7.66026C120.66 19.1919 114.762 41.5664 97.5425 46.8152C96.647 47.0883 94.5589 47.393 93.9373 47.8022C92.4408 48.7869 93.8267 50.2399 94.3569 51.3141C97.3999 57.4823 98.1771 64.2655 96.7439 71.0147Z" fill="#BCAEA3"/>
<path d="M44.3424 62.6911C49.0547 62.0112 50.9028 67.9498 47.0514 69.9993C43.9744 71.6365 40.3824 68.8624 41.3182 65.4793C41.6749 64.1883 43.003 62.8844 44.3424 62.6911Z" fill="#060403"/>
<path d="M71.1372 62.6889C74.4924 62.1635 77.1029 65.4277 75.4172 68.4744C73.5937 71.7704 68.4349 70.7783 68.0019 67.0019C67.7827 65.0866 69.1948 62.9932 71.1372 62.6889Z" fill="#060403"/>
<path d="M57.6691 75.4235C58.3814 75.6711 58.7362 75.6758 59.4493 75.4235C59.7267 75.3816 59.6364 75.7756 59.745 76.0189C60.0053 76.6018 61.0868 77.6444 61.7155 77.7981C63.2964 78.1847 63.4132 76.8248 64.6265 77.1354C64.9562 77.2199 65.2489 77.6671 65.2645 78.0043C65.3091 78.971 63.8005 79.656 63.0096 79.8324C62.1777 79.9005 61.4565 79.7816 60.6672 79.5511C60.1803 79.3149 59.6685 78.9667 59.2617 78.613C59.0996 78.4718 58.7248 77.9237 58.5564 77.8646L58.4205 77.8631C58.3634 78.0779 58.1067 78.3744 57.9504 78.5191C57.3014 79.1196 56.3773 79.64 55.5142 79.8324H54.1087C53.1405 79.627 51.0145 78.5324 52.1394 77.3451C52.9373 76.5024 53.7493 77.7129 54.3643 77.8412C55.5763 78.0947 56.4191 77.252 57.0912 76.3925L57.6691 75.4235Z" fill="#060403"/>
<path d="M62.2612 79.926C61.5356 79.9272 61.3063 79.8607 60.6682 79.5509C60.1814 79.3146 59.6695 78.9664 59.2627 78.6127C59.1006 78.4715 58.7259 77.9234 58.5575 77.8644L58.4215 77.8628C58.3644 78.0776 58.1077 78.3741 57.9514 78.5188C57.3024 79.1194 56.3784 79.6397 55.5152 79.8321C55.2499 79.8912 55.1761 79.9217 54.8592 79.926C54.7814 80.8106 54.658 82.0053 54.7635 82.8832C54.9409 84.3623 56.9945 84.0388 58.0452 84.0537C58.3875 84.0584 58.7337 84.0584 59.076 84.0537C60.2935 84.0369 62.2003 84.3976 62.3589 82.697C62.4449 81.7725 62.2198 80.8481 62.2612 79.926Z" fill="#FEFEFE"/>
<path d="M44.8059 63.9948C45.5503 63.7746 45.6276 64.929 44.8856 64.8257C44.4511 64.7651 44.4308 64.1059 44.8059 63.9948Z" fill="#FEFEFE"/>
<path d="M71.98 63.9948C72.7244 63.7746 72.8017 64.929 72.0597 64.8257C71.6249 64.7651 71.6045 64.1059 71.98 63.9948Z" fill="#FEFEFE"/>
<path d="M59.2632 78.6128C58.9796 78.5604 59.0831 78.756 59.0757 78.9368C59.0085 80.637 59.1257 82.3528 59.0757 84.0534C58.7334 84.0581 58.3872 84.0581 58.0449 84.0534C58.0684 82.976 58.0149 81.8916 58.041 80.8134C58.0567 80.1644 58.1661 79.5423 58.1387 78.8433C58.1317 78.6625 58.2352 78.4669 57.9512 78.5193C58.1075 78.3746 58.3646 78.0781 58.4212 77.8633L58.5572 77.8648C58.7264 77.9235 59.1007 78.472 59.2632 78.6128Z" fill="#CED8DA"/>
<path d="M79.69 32.7428L74.3076 29.5497C73.8407 28.8592 74.4518 25.5919 74.7007 24.6979C77.2694 15.4752 88.3634 11.6179 96.2125 17.0952C104.047 22.5627 104.067 34.1073 96.3062 39.6672C94.5265 40.9421 92.2751 41.9076 90.0959 42.0786C88.5787 40.252 86.9224 38.5604 85.1293 37.0046C85.1012 36.8755 85.8475 36.4906 85.8702 35.8775C85.903 34.9997 85.0242 34.5353 84.2353 34.6194C83.777 34.6683 83.0151 35.1941 82.6923 35.0427C82.6142 35.0059 81.9789 34.4469 81.9554 34.3636C81.8531 34.0001 82.2 33.2584 81.9632 32.6735C81.5823 31.7331 79.9142 31.6044 79.69 32.7428Z" fill="#F6B8A9"/>
<path d="M28.5094 14.7597C36.614 14.5278 43.4026 21.2452 42.8653 29.4125L37.5561 32.7327C37.3462 32.7632 37.2681 32.2984 37.0532 32.1341C36.3178 31.572 35.0569 32.1999 34.9968 33.0816C34.9745 33.4095 35.2363 34.1238 35.1695 34.364C35.1495 34.4364 34.497 34.979 34.4052 35.0185C34.0508 35.1711 33.326 34.6844 32.8778 34.6265C31.7764 34.4841 30.7542 35.5071 31.4853 36.4887C31.6107 36.6573 32.0272 36.8595 31.9948 37.0086C30.8992 37.971 29.8075 38.947 28.8072 40.0096C28.4919 40.3444 26.952 42.2876 26.7086 42.3024C26.4987 42.3154 25.5969 42.0744 25.3226 42.002C9.9309 37.9491 12.5922 15.2155 28.5094 14.7597Z" fill="#F6B8A9"/>
<path d="M59.4515 75.424C58.7384 75.6764 58.3836 75.6717 57.6713 75.424C56.5617 75.0383 54.3732 73.4379 54.3036 72.1747C54.2599 71.3821 54.9976 70.6583 55.7587 70.5547C56.9618 70.3907 59.8286 70.4486 61.0953 70.5425C62.2519 70.6282 63.0087 71.5159 62.6684 72.6879C62.3879 73.6538 60.3818 75.0946 59.4515 75.424Z" fill="#F6B8A9"/>
<path d="M93.7451 79.0814C94.6122 79.2394 95.7527 79.4252 96.556 79.6443C97.538 77.594 98.464 75.4909 98.9923 73.2657C98.0057 73.1315 97.1769 73.0403 96.1813 72.9844C95.6453 75.12 94.6641 77.0972 93.7451 79.0814Z" fill="#060404"/>
<path d="M20.9379 72.9844C19.8231 73.0474 19.1663 73.088 18.127 73.3595C18.6494 75.5906 19.627 77.666 20.5632 79.7382C21.4568 79.4898 22.4633 79.2523 23.3741 79.0818C22.4176 77.1195 21.4415 75.1231 20.9379 72.9844Z" fill="#060404"/>
<path d="M116.982 23.5501C116.649 12.25 107.994 2.8997 97.1356 0.597433C81.8052 -2.65313 66.839 7.70414 64.9787 23.3161C64.9205 23.8051 64.9533 24.433 64.8857 24.9134C64.865 25.0601 64.9396 25.0566 64.7431 25.0547C64.2398 25.0492 63.5721 24.8998 63.0563 24.8645C61.9478 24.7886 60.7959 24.7049 59.6886 24.6713C57.2219 24.5966 54.6935 24.8704 52.2354 25.0511C51.7841 12.4249 41.9318 2.12276 29.5909 0.302461C11.2452 -2.40353 -4.43291 13.9134 1.14323 32.1582C3.80959 40.8822 11.398 47.8446 20.2836 49.8159C20.2887 49.9188 20.2934 50.0205 20.2614 50.1218C20.0594 50.7622 19.4901 51.6573 19.2083 52.3513C16.744 58.4197 16.3064 64.9686 17.5657 71.3903C18.482 71.2694 19.4783 71.0824 20.3766 71.0151C18.9825 64.7824 19.5952 58.1134 22.2639 52.3145C22.5944 51.5963 23.6506 50.0005 23.7994 49.4434C24.3363 47.4354 21.3539 47.3387 20.0754 46.9745C3.14027 42.1493 -3.54946 20.8441 10.0683 8.5871C24.2132 -4.14402 48.3695 5.36745 49.4229 24.442C49.4655 25.2131 49.1787 27.3409 49.8554 27.7614C50.5599 28.1988 52.5444 27.7372 53.4068 27.6781C56.8503 27.4426 60.2688 27.4399 63.7123 27.6781C64.5696 27.7376 66.6417 28.2172 67.3161 27.7196C67.8834 27.301 67.6443 24.9643 67.6916 24.2496C68.904 5.84785 91.4864 -3.62645 105.916 7.65994C120.659 19.1916 114.76 41.5661 97.5412 46.8149C96.6456 47.088 94.5575 47.3927 93.9359 47.8019C92.4394 48.7866 93.8253 50.2396 94.3555 51.3138C97.3989 57.482 98.1761 64.2652 96.7429 71.0143C97.5669 71.0746 98.7227 71.1869 99.5538 71.2956C99.7027 69.7832 100.122 68.268 100.214 66.7502C100.399 63.6784 100.108 60.2033 99.4311 57.2074C98.8665 54.7091 97.937 52.2156 96.7452 49.9548L100.863 48.5452C109.882 44.8401 116.708 35.8939 116.982 25.9885C117.004 25.1932 117.006 24.3454 116.982 23.5501Z" fill="#060404"/>
<path d="M95.3033 81.4115C94.8888 81.244 93.1961 80.89 92.7491 80.8657C92.5909 80.8571 92.6041 80.9616 92.526 81.0523C92.0583 81.5965 91.623 82.4102 91.1577 83.0127C84.7676 91.2793 75.4791 95.9539 65.1177 96.9984C50.7169 98.4502 34.5343 94.4861 25.5475 82.4893C25.2525 82.0957 24.8852 81.3724 24.5933 81.0527C24.3479 80.7844 23.9865 80.9526 23.654 81.0038C23.1425 81.0825 22.2841 81.2374 21.816 81.4119C21.6296 81.4811 21.6995 81.6102 21.689 81.6157C23.1722 84.1421 25.0587 86.5301 27.1678 88.5596C32.4826 93.6739 38.188 96.8079 45.3939 98.4545C59.177 101.604 75.3584 100.28 86.7096 91.3165C90.1589 88.5929 93.2047 85.4374 95.4311 81.6153C95.4198 81.6098 95.4909 81.487 95.3033 81.4115Z" fill="#060404"/>
</svg>
