<svg width="100" height="100" viewBox="0 0 100 100" fill="none" xmlns="http://www.w3.org/2000/svg">
<path d="M96.9411 57.3285C96.5358 58.1057 95.7595 58.8021 95.0439 59.309C91.7567 61.6387 87.068 61.8361 83.3609 60.4434C82.649 60.1761 81.1948 59.2431 80.5948 59.2811C79.7068 59.337 79.1469 60.1967 79.2365 61.0415C79.317 61.7995 80.0422 63.4201 80.2714 64.3218C83.6201 77.4903 75.8126 87.5782 63.5155 91.3725C56.7507 93.4598 48.2911 93.7271 41.3284 92.5241C26.2262 89.9149 15.4365 79.0025 20.1538 62.9984C20.3894 62.1989 21.0134 61.1108 20.7592 60.3179C20.5711 59.7311 19.9364 59.2414 19.309 59.2814C18.734 59.318 17.4482 60.1638 16.7701 60.4234C13.6215 61.6297 9.92601 61.652 6.81751 60.3196C5.42945 59.7244 3.90744 58.6912 3.13574 57.3751L13.0255 50.8564C13.7304 51.4303 14.3451 52.0993 15.074 52.6479C20.5233 56.748 28.7006 56.8658 34.5739 53.5759C43.6595 59.756 56.3464 59.7913 65.4298 53.5899C71.9277 57.1135 80.7214 56.725 86.2489 51.5787C86.4169 51.4223 86.8291 50.8614 86.9658 50.8588L96.9411 57.3285ZM34.9972 61.0232C32.1065 61.3714 30.7999 64.8071 33.1711 66.7124C35.1201 68.2782 38.4928 67.4151 38.9966 64.8508C39.461 62.4868 37.2548 60.7513 34.9972 61.0232ZM63.9963 61.0216C62.7469 61.1907 61.2723 62.3237 61.0708 63.6159C60.5888 66.7054 64.0614 68.4656 66.5729 66.9448C69.7706 65.0082 67.7114 60.5186 63.9963 61.0216Z" fill="#FBE0DA"/>
<path d="M45.9692 68.7671C48.5058 68.9309 51.475 68.4822 53.9614 68.7478C55.2777 68.8882 55.3418 70.3139 54.8156 71.2772C53.9945 72.7803 52.0502 73.7739 50.7293 74.7908L50.7985 78.4502C51.8575 80.0702 53.6861 79.8912 55.0047 78.6539C55.4554 78.2309 55.9424 77.2586 56.7282 77.9696C57.7568 78.9002 55.3889 80.5632 54.6155 80.9017C52.9028 81.6513 51.4001 81.2802 49.9666 80.1778C48.5602 81.5448 46.5768 81.6084 44.9239 80.6331C44.2531 80.2373 42.4294 78.7981 43.3427 77.9699C44.1839 77.207 44.7882 78.4802 45.3555 78.9249C46.6002 79.8998 48.1837 79.9225 49.1752 78.603L48.9922 74.5804C48.909 74.382 47.7257 73.7087 47.4384 73.4937C46.7168 72.9538 45.2299 71.6806 45.0027 70.8105C44.7719 69.9244 45.0021 69.0037 45.9692 68.7671Z" fill="#F3AE9F"/>
<path d="M44.6281 95.6634C42.8214 95.5775 40.7879 95.2124 39.0194 94.8256C24.5479 91.6618 13.9001 80.8965 16.7745 65.2989C16.9067 64.5802 17.1383 63.8832 17.2295 63.1576C11.6666 65.1311 3.65126 63.7967 0.501664 58.3898C-0.114358 57.3323 -0.281726 56.6652 0.686737 55.7296L11.5379 48.6147C10.2511 45.901 10.0824 42.9172 11.2242 40.1182C6.23661 34.4057 9.60769 24.6367 16.6505 22.4861C18.1705 16.5609 24.0528 12.0601 30.1679 11.898L32.4737 12.107C36.1671 8.00419 41.4574 5.12798 46.9345 4.23758C54.3718 3.02831 62.6253 6.55427 67.513 12.1087C74.4633 10.8951 81.6371 15.796 83.4204 22.4861C89.7627 24.3964 93.3232 32.9189 89.8756 38.662C89.7049 38.9462 88.866 39.9568 88.8503 40.1192C88.8289 40.3399 89.4045 41.9453 89.478 42.4442C89.7967 44.6061 89.4256 46.598 88.5363 48.5688L99.4162 55.7782C99.6811 56.1157 99.9324 56.3101 99.9855 56.7681C100.005 56.9328 100.005 57.2427 99.9855 57.4072C99.9344 57.8379 99.5034 58.4963 99.2492 58.8694C96.5025 62.9033 91.0298 64.4504 86.3364 63.9461C85.1161 63.815 83.9439 63.4562 82.7616 63.1579C85.0119 71.042 83.4735 79.2482 78.0759 85.4417C72.778 91.5207 63.4337 95.243 55.4432 95.6637C55.1348 95.6801 54.7256 95.5852 54.4817 95.7436H45.509C45.2935 95.5875 44.91 95.6771 44.6281 95.6634ZM49.1781 6.71371C44.2796 6.99597 38.4648 9.64285 35.1338 13.2384C34.6805 13.7277 34.1293 14.6963 33.5143 14.8983C32.5725 15.2079 31.3629 14.6071 30.3306 14.5931C26.0783 14.5358 21.426 17.8058 19.7794 21.6517C19.4333 22.4602 19.295 23.3942 18.9282 24.1577C18.5136 25.0212 17.7583 24.9516 16.9695 25.2402C12.6668 26.8129 10.1489 32.9878 12.3815 37.0416C12.5358 37.3219 12.9527 37.9693 13.1792 38.1634C13.6035 38.5272 14.1801 38.4649 14.3271 39.2551C14.4868 40.1129 14.0404 40.483 13.7475 41.196C11.7738 45.9985 15.0734 50.2125 19.3952 52.0132C23.7318 53.82 29.0338 53.5307 33.1455 51.2706C33.6522 50.992 33.9923 50.499 34.6514 50.535C35.2217 50.5659 36.0305 51.3006 36.5436 51.6098C44.8856 56.6376 54.6361 56.8443 63.0786 51.8807C63.6355 51.5535 64.7777 50.5949 65.347 50.542C66.0248 50.4787 66.1958 50.8645 66.6655 51.1308C70.685 53.4099 75.8113 53.8512 80.1592 52.2169C84.445 50.6062 88.0095 46.7071 86.5476 41.8518C86.2205 40.766 84.9725 39.3773 86.2596 38.4916C86.8913 38.0568 87.0514 38.0728 87.5034 37.3355C89.9855 33.2857 87.5134 26.9458 83.1605 25.2615C82.7252 25.0931 82.1098 25.0285 81.7437 24.8371C80.9596 24.4274 80.7335 22.8559 80.4401 22.0634C78.8587 17.7879 73.4287 14.0096 68.7912 14.687C68.0215 14.7995 67.499 15.141 66.6739 14.9426C65.9583 14.7705 65.1301 13.4341 64.5783 12.8786C60.9002 9.17452 54.435 6.41081 49.1781 6.71371ZM96.9408 57.3283L86.9652 50.8582C86.8285 50.8609 86.4163 51.4217 86.2483 51.5782C80.7208 56.7245 71.9271 57.1129 65.4291 53.5893C56.3455 59.7911 43.6589 59.7555 34.5733 53.5753C28.6997 56.8653 20.5227 56.7474 15.0734 52.6473C14.3444 52.0988 13.7298 51.4297 13.0249 50.8559L3.13612 57.3749C3.90749 58.691 5.4295 59.7242 6.81789 60.3193C9.92639 61.6517 13.6219 61.6294 16.7704 60.4232C17.4483 60.1635 18.7344 59.3178 19.3094 59.2811C19.9367 59.2412 20.5715 59.7305 20.7596 60.3177C21.0138 61.1109 20.3897 62.1986 20.1542 62.9982C15.4368 79.0026 26.2266 89.915 41.3288 92.5239C48.2918 93.7268 56.751 93.4596 63.5159 91.3722C75.813 87.578 83.6205 77.4901 80.2718 64.3216C80.0426 63.4199 79.317 61.7992 79.2368 61.0413C79.1473 60.1965 79.7072 59.3367 80.5952 59.2808C81.1951 59.2429 82.6493 60.1759 83.3612 60.4431C87.0684 61.8358 91.757 61.6384 95.0443 59.3088C95.7595 58.8015 96.5359 58.1052 96.9408 57.3283Z" fill="black"/>
<path d="M34.9961 61.0232C37.2537 60.7512 39.4596 62.4868 38.9956 64.8507C38.4921 67.415 35.1194 68.2781 33.1701 66.7124C30.7989 64.8071 32.1054 61.3714 34.9961 61.0232Z" fill="black"/>
<path d="M63.9961 61.021C67.7113 60.518 69.7704 65.0076 66.5727 66.9441C64.0612 68.465 60.5886 66.7048 61.0706 63.6152C61.2721 62.3231 62.7467 61.19 63.9961 61.021Z" fill="black"/>
<path d="M49.1778 6.71362C54.4347 6.41072 60.8999 9.17443 64.578 12.8778C65.1299 13.4337 65.9577 14.7698 66.6736 14.9418C67.4991 15.1402 68.0212 14.7987 68.7909 14.6862C73.4285 14.0092 78.8587 17.7871 80.4399 22.0627C80.7328 22.8552 80.9594 24.4266 81.7434 24.8363C82.1095 25.0277 82.7252 25.0923 83.1602 25.2607C87.5134 26.945 89.9855 33.2849 87.5031 37.3348C87.0511 38.0721 86.8911 38.0561 86.2593 38.4908C84.9722 39.3762 86.2203 40.7649 86.5473 41.851C88.0092 46.7064 84.4447 50.6055 80.1589 52.2162C75.8107 53.8505 70.6847 53.4091 66.6652 51.1301C66.1955 50.8638 66.0245 50.478 65.3467 50.5412C64.7774 50.5942 63.6352 51.5528 63.0784 51.88C54.6358 56.8435 44.8853 56.6368 36.5433 51.609C36.0302 51.2998 35.2214 50.5652 34.6512 50.5342C33.9924 50.4986 33.652 50.9916 33.1452 51.2699C29.0335 53.5299 23.7315 53.8192 19.3949 52.0125C15.0728 50.212 11.7735 45.9977 13.7472 41.1953C14.0402 40.4823 14.4865 40.1122 14.3268 39.2544C14.1798 38.4642 13.6032 38.5264 13.1789 38.1626C12.9528 37.9686 12.5355 37.3211 12.3812 37.0409C10.1486 32.9867 12.6665 26.8119 16.9693 25.2394C17.758 24.9512 18.5133 25.0208 18.9279 24.157C19.2944 23.3934 19.433 22.4594 19.7791 21.6509C21.4257 17.8051 26.078 14.5351 30.3303 14.5923C31.3626 14.6063 32.5719 15.2071 33.514 14.8976C34.129 14.6955 34.6802 13.7269 35.1336 13.2376C38.4642 9.64276 44.2793 6.99555 49.1778 6.71362Z" fill="white"/>
<path d="M35.0336 62.738C34.6534 62.3648 35.3587 61.8496 35.662 62.2307C35.9994 62.6547 35.365 63.0635 35.0336 62.738Z" fill="white"/>
<path d="M64.436 62.738C64.0558 62.3648 64.761 61.8496 65.0643 62.2307C65.4017 62.6547 64.7673 63.0635 64.436 62.738Z" fill="white"/>
</svg>
