<svg width="100" height="100" viewBox="0 0 100 100" fill="none" xmlns="http://www.w3.org/2000/svg">
<path d="M30.3769 15.5354C32.9614 14.0742 35.3934 13.3847 38.2863 12.9778C40.8427 12.6183 54.9915 12.4201 56.0293 12.4907C58.244 12.6412 60.5802 12.8079 62.763 13.2215C64.7632 13.6005 66.9414 13.2982 68.7485 14.3176C72.717 16.5566 78.6297 22.262 81.7886 25.7666C83.5197 27.6873 84.7075 30.9047 85.957 33.3179C87.4824 36.2644 89.0917 40.6262 90.2324 43.7924C90.2324 43.7924 92.0033 48.9888 92.2633 49.5169C92.2633 49.5169 93.5358 64.3242 93.3321 64.7414C92.1269 67.2117 87.1451 76.2755 85.3157 78.1391C72.3826 89.2225 43.7371 97.2612 15.6261 79.3569C13.7502 77.4464 10.5063 74.1146 9.31978 71.5619C9.14868 71.1939 7.22718 62.2618 7.18193 62.3053C7.17263 62.3141 6.56571 56.0326 6.86142 53.6576L8.03775 48.4205C8.27674 47.8582 12.4424 35.1267 14.0232 32.0997C15.022 30.1877 18.886 24.223 19.0469 24.0609C22.5734 20.5136 26.1266 17.9383 30.3769 15.5354Z" fill="#E08447"/>
<path d="M41.3116 49.1309C41.3388 49.2181 42.0524 50.0178 42.1795 50.1329C43.8756 51.6694 46.8597 52.3868 48.9712 52.6881L48.9318 56.922C46.7094 59.3348 43.5446 60.2203 40.6901 58.6905C40.0959 58.3719 38.9493 57.235 38.4496 57.2226C37.428 57.1972 37.1453 58.533 37.8901 59.3387C38.9508 60.4859 40.9858 61.4459 42.4268 61.6674C42.4014 61.8412 42.456 61.9691 42.5102 62.1223C43.6273 65.2967 47.8342 68.8175 50.9066 68.1503C53.6446 67.5558 56.7502 64.6934 57.6711 61.6674C58.8229 61.483 60.0225 60.9458 61.011 60.2627C61.7586 59.7459 63.1457 58.7965 62.3553 57.6443C61.6278 56.5836 60.8312 57.6874 60.193 58.1448C57.1606 60.3192 53.6378 59.67 51.1084 56.9026C50.981 55.5851 51.0873 54.2305 51.0523 52.9C51.1028 52.5938 51.7718 52.6354 52.0349 52.5793C53.8309 52.1953 56.3404 51.4373 57.813 50.1824C58.0043 50.0195 58.6434 49.3396 58.712 49.1312C63.9383 50.579 68.8829 53.5919 73.0979 57.3512C78.478 62.1499 83.5029 68.8457 85.1104 76.5758C80.7953 80.9715 75.4165 83.5888 69.8237 85.2097C59.8133 88.111 48.2372 89.1565 38.0259 87.0528C29.6533 85.3277 21.4119 83.1943 14.9131 76.5761C15.9626 71.4305 18.6377 66.6572 21.7525 62.809C26.9417 56.3975 33.8376 51.2653 41.3116 49.1309Z" fill="#F6EBDE"/>
<path d="M80.6486 26.2601C77.4897 22.7555 72.7937 19.0118 68.8252 16.7728C71.3769 14.3787 75.1141 13.8623 77.9206 16.0261C80.3163 17.8734 81.3392 21.2162 81.011 24.4276C80.9474 25.0475 80.7993 25.6631 80.6486 26.2601Z" fill="#F6EBDE"/>
<path d="M31.1984 16.7731C26.9484 19.176 23.4972 22.2483 19.9707 25.7956C19.8099 25.9574 19.5777 26.1785 19.3747 26.2601C18.4203 22.563 19.1955 18.4075 22.0283 16.1109C24.8041 13.8609 28.6492 14.3392 31.1984 16.7731Z" fill="#F6EBDE"/>
<path d="M58.5641 47.6059C58.1431 47.0676 55.8649 46.7529 55.1801 46.6745C52.1062 46.3227 41.9327 47.0231 41.4609 47.6907C41.871 45.1158 43.2398 42.7044 44.6291 40.6688C45.5057 39.3845 48.452 35.6267 49.8226 35.489C50.6986 35.401 51.406 36.1007 52.0544 36.6825C53.7803 38.2306 55.5233 40.6247 56.7067 42.7337C57.5322 44.2045 58.3344 45.855 58.5641 47.6059Z" fill="#C8652F"/>
<path d="M58.5636 47.6061C58.6476 47.7138 58.779 48.0875 58.7905 48.2419C58.7992 48.3581 58.7403 49.0458 58.7124 49.1309C58.6439 49.3393 58.0044 50.0192 57.8135 50.1821C56.3411 51.4374 53.8313 52.1954 52.0354 52.579C51.7722 52.6351 51.1033 52.5938 51.0528 52.8997C51.0875 54.2302 50.9812 55.5848 51.1089 56.9023C53.6382 59.6697 57.161 60.3189 60.1934 58.1445C60.8316 57.6871 61.6283 56.5833 62.3558 57.644C63.1462 58.7962 61.7588 59.7456 61.0114 60.2624C60.0229 60.9455 58.8234 61.4827 57.6715 61.6671C57.0544 61.766 56.2863 61.8077 55.6639 61.7519C54.9618 61.6886 53.7244 61.3605 53.061 61.0741C51.9882 60.6106 50.957 59.7435 50.0506 58.9555C49.0832 59.7177 48.0758 60.5993 46.9633 61.0741C46.229 61.3874 45.2148 61.6759 44.4349 61.7519C43.8153 61.8119 43.0432 61.7618 42.4273 61.6671C40.9862 61.4456 38.9513 60.4856 37.8906 59.3384C37.1457 58.5327 37.4284 57.1968 38.4501 57.2223C38.9497 57.2346 40.0963 58.3716 40.6905 58.6902C43.545 60.22 46.7101 59.3345 48.9323 56.9217L48.9716 52.6877C46.8601 52.3865 43.8761 51.6687 42.1799 50.1326C42.0528 50.0175 41.3393 49.2178 41.312 49.1305C41.299 49.0889 41.2357 48.3263 41.2401 48.2514C41.2506 48.072 41.3616 47.8307 41.4608 47.6905C41.9329 47.0233 44.071 46.7637 44.8447 46.6743C47.9184 46.3204 52.1063 46.3225 55.1803 46.6743C55.8644 46.7531 58.1427 47.0674 58.5636 47.6061Z" fill="#060201"/>
<path d="M37.801 35.9419C42.3117 35.5127 43.0001 42.8825 38.5896 43.4465C33.7119 44.07 33.0703 36.3918 37.801 35.9419Z" fill="#060201"/>
<path d="M61.7457 35.9418C65.876 35.549 67.0781 42.1 63.0091 43.3098C58.0034 44.7975 56.612 36.4299 61.7457 35.9418Z" fill="#060201"/>
<path d="M94.9256 55.903C94.9309 56.0718 94.9253 56.2424 94.9256 56.4113C94.9265 56.7853 94.8624 57.2777 95 57.597V58.9523C94.863 59.2048 94.9265 59.6485 94.9256 59.9688C94.925 60.1659 94.9318 60.3651 94.9256 60.5619C94.7926 64.8177 93.435 69.4187 91.4614 73.0066C86.3234 82.3473 76.5817 86.9807 67.4258 89.082C62.2624 90.267 57.3949 91.1355 52.0932 91.3104C51.9203 91.316 51.7457 91.3061 51.5728 91.3104C50.478 91.3379 49.3206 91.3422 48.2264 91.3104C42.8314 91.1543 37.8514 90.3023 32.595 89.0834C22.2299 86.6794 11.2905 81.11 6.92088 69.3689C1.81229 55.6416 7.78043 39.8686 14.4522 28.3108C14.0009 26.8965 13.526 25.5685 13.2997 24.0687C12.1525 16.4665 16.1545 10.7039 22.366 8.61429C26.5388 7.21062 30.7599 8.36421 34.5453 10.5407C34.8565 10.7198 35.3915 11.197 35.663 11.2998C36.0778 11.4569 37.999 10.9978 38.5972 10.9246C47.0689 9.8855 55.7425 10.0229 64.1783 11.3538C68.6815 8.51433 73.3103 6.91498 78.3813 8.88944C85.9421 11.8335 88.9014 19.9139 85.5711 28.2334C89.2907 34.8558 92.6098 41.9766 94.1454 49.7186C94.5468 51.7408 94.8614 53.8258 94.9256 55.903ZM31.1976 16.7685C28.6484 14.3342 24.8033 13.856 22.0278 16.1066C19.1953 18.4032 18.4201 22.5587 19.3742 26.2558C19.376 26.3413 19.376 26.4278 19.3342 26.5034C19.266 26.626 18.6854 27.1434 18.518 27.3561C17.232 28.9879 15.9258 31.5187 14.9274 33.4306C13.3462 36.4576 11.9607 39.6171 10.7484 42.8578C11.4765 42.4944 12.1429 41.9727 12.8555 41.5743C14.6323 40.581 16.8123 39.6281 18.7657 39.2431C19.4058 39.117 20.0062 38.8916 20.5893 39.3148C21.3053 39.8343 21.3341 40.9024 20.5679 41.3807C19.8373 41.8367 18.6817 42.1874 17.8603 42.6166C15.4295 43.886 12.8416 45.7415 10.7874 47.6891C10.294 48.1567 8.97969 49.4117 8.74071 49.974C8.41772 50.7337 8.25561 52.3946 8.14588 53.2776C7.85017 55.6526 7.79406 57.9485 7.848 60.3503C7.83932 60.4238 7.98655 60.4012 7.99554 60.3923C8.04049 60.3489 8.45523 59.4044 8.56093 59.2144C10.6963 55.3785 13.8028 51.4734 17.2239 49.092C17.701 48.76 18.8847 47.9568 19.3717 47.8116C20.5511 47.4602 21.2309 48.8518 20.4451 49.7967C20.1042 50.2068 19.2378 50.7394 18.7781 51.2014C15.3433 54.6516 12.0884 60.8042 10.2887 65.5874C10.1005 66.0875 9.55375 67.381 9.49827 67.8271C9.44372 68.2682 10.0525 69.5137 10.263 69.9665C11.4495 72.5191 13.0363 74.6614 14.9122 76.5719C21.411 83.19 29.6524 85.3238 38.025 87.0485C48.2363 89.1523 59.8124 88.1068 69.8228 85.2055C75.4156 83.5846 80.7948 80.9673 85.1095 76.5715C86.9389 74.7076 88.4048 72.7752 89.6099 70.3052C89.8136 69.8881 90.4153 68.6557 90.5027 68.2732C90.5482 68.0733 90.5547 67.944 90.521 67.7398C90.4307 67.1955 89.8815 65.9137 89.6589 65.3331C87.9017 60.7537 84.4477 54.1677 81.0551 50.9926C80.588 50.5557 79.4436 49.8758 79.3267 49.2347C79.1386 48.2016 79.7551 47.5605 80.6503 47.8113C81.2551 47.9808 82.6 48.9288 83.1701 49.3456C86.8478 52.0364 89.9506 56.2039 92.1371 60.4771C92.369 58.0519 92.1768 55.5985 91.8764 53.1928C91.7738 52.3709 91.6124 50.5614 91.2816 49.8892C91.0219 49.3612 89.6366 48.0539 89.1605 47.6043C87.0756 45.6358 84.4831 43.8016 82.0132 42.5318C81.4624 42.2485 79.4693 41.4976 79.1944 41.1684C78.7638 40.6531 78.8686 39.8138 79.3469 39.3861C79.8599 38.9276 80.3016 39.0594 80.8865 39.1562C82.9354 39.4953 84.8904 40.4178 86.7722 41.3461L89.2739 42.8578C88.1333 39.6916 86.7691 36.6314 85.2437 33.6849C83.9943 31.2714 82.3793 28.1769 80.6481 26.2562C80.7985 25.6592 80.947 25.0436 81.0105 24.4241C81.3388 21.2123 80.3159 17.8695 77.9201 16.0226C75.1137 13.8584 71.3761 14.3752 68.8247 16.7692C67.0176 15.7499 65.1888 14.8011 63.1889 14.4221C61.0061 14.0085 58.5833 13.7867 56.3686 13.6359C55.3308 13.5653 53.6164 13.3629 52.6484 13.4621C52.4711 13.4801 52.0123 13.5695 51.9565 13.7754C52.0117 14.1166 51.658 15.5507 51.8657 15.716C51.9435 15.7778 53.4806 15.8926 53.7562 15.9342C55.1852 16.1501 56.7214 16.4411 58.0995 16.9162C59.0176 17.233 60.8591 17.754 60.3833 19.2244C59.9413 20.5906 58.513 19.4872 57.7272 19.2036C55.7586 18.4929 53.5566 18.2312 51.5027 18.045L51.2008 21.005C52.6068 21.036 54.0786 21.243 55.4403 21.6393C56.3348 21.8996 58.7331 22.5792 57.8531 24.1348C57.2582 25.1859 56.3503 24.3622 55.5881 24.097C54.0947 23.577 52.4615 23.3566 50.9036 23.2913L50.5152 26.9573C50.4244 27.5369 49.6138 27.4956 49.5065 26.9587L49.1154 23.2962C47.4843 23.3499 45.8297 23.6134 44.2702 24.1634C43.6221 24.3919 42.7495 25.145 42.2034 24.1814C41.5983 23.114 42.4749 22.4743 43.225 22.1261C44.9075 21.3444 47.0166 21.0986 48.8221 21.0053L48.5137 18.0525C46.5482 18.2128 44.4844 18.4749 42.5927 19.1188C42.0871 19.2908 41.0838 19.8637 40.6786 19.9044C39.8929 19.9831 39.4642 19.2845 39.6179 18.4406C39.7394 17.7734 40.6898 17.4047 41.1981 17.1917C42.7415 16.5446 44.6341 16.1826 46.2667 15.9346C46.5426 15.8929 48.0791 15.7778 48.1572 15.7163C48.3848 15.5369 48.0178 14.0018 48.0708 13.6433C47.4446 13.3272 46.8702 13.5278 46.2553 13.5501C43.6866 13.6423 41.0878 13.7948 38.5318 14.1544C35.6385 14.5603 33.7821 15.3073 31.1976 16.7685Z" fill="#060201"/>
<path d="M55.6629 61.7519C54.9609 61.6887 53.7235 61.3606 53.0601 61.0741C51.9873 60.6107 50.9561 59.7436 50.0497 58.9556C49.0823 59.7178 48.0749 60.5994 46.9624 61.0741C46.2281 61.3874 45.2139 61.676 44.434 61.7519C43.8144 61.812 43.0423 61.7618 42.4263 61.6672C42.4009 61.841 42.4555 61.9688 42.5097 62.1221C43.6269 65.2964 47.8337 68.8172 50.9062 68.15C53.6441 67.5556 56.7497 64.6931 57.6706 61.6672C57.0535 61.7661 56.2857 61.8081 55.6629 61.7519Z" fill="#EA7468"/>
<path d="M46.962 61.0742C46.8603 61.9512 46.7605 63.6089 45.7739 63.7512C44.8378 63.8865 44.5374 62.5637 44.4336 61.7517C45.2135 61.6761 46.2277 61.3872 46.962 61.0742Z" fill="white"/>
<path d="M55.6634 61.7515C55.4448 62.5427 55.2508 63.9005 54.2651 63.7324C53.2422 63.5579 53.2236 61.9854 53.0605 61.0737C53.7242 61.3602 54.9613 61.6887 55.6634 61.7515Z" fill="white"/>
<path d="M37.864 37.2082C38.412 37.1421 38.5289 38.01 37.9858 38.105C37.4629 38.1961 37.3243 37.2732 37.864 37.2082Z" fill="white"/>
<path d="M62.1834 37.2082C62.7128 37.1937 62.7078 38.1092 62.1703 38.1117C61.6849 38.1138 61.6121 37.2241 62.1834 37.2082Z" fill="white"/>
</svg>
