<svg xmlns="http://www.w3.org/2000/svg" xmlns:xlink="http://www.w3.org/1999/xlink" viewBox="0 0 295.9 339"><defs><style>.cls-1{fill:none;}.cls-2{fill:#fc8f27;}.cls-3{clip-path:url(#clip-path);}.cls-4{fill:#fff;}</style><clipPath id="clip-path"><rect class="cls-1" x="65.38" y="140" width="165" height="140.81"/></clipPath></defs><g id="Layer_2" data-name="Layer 2"><g id="Layer_1-2" data-name="Layer 1"><path class="cls-2" d="M295.85,307.39l-10.66-198A30,30,0,0,0,255.24,81H225.35c0-.33,0-.66,0-1,0-44.18-34.48-80-77-80s-77,35.82-77,80c0,.34,0,.67,0,1H40.45a30,30,0,0,0-30,28.42L0,307.42A30,30,0,0,0,30,339H265.9A30,30,0,0,0,295.85,307.39ZM101.38,80c0-28.71,22.11-50,47-50s47,21.29,47,50c0,.34,0,.67,0,1H101.4C101.39,80.67,101.38,80.34,101.38,80ZM250.27,316H46.46a20,20,0,0,1-20-21.05l9.08-172a20,20,0,0,1,20-19H241a20,20,0,0,1,20,18.92l9.26,172A20,20,0,0,1,250.27,316Z"/><g class="cls-3"><path class="cls-4" d="M100.17,180.5c8.42,0,15.25-9.07,15.25-20.25S108.59,140,100.17,140s-15.25,9.07-15.25,20.25S91.74,180.5,100.17,180.5Z"/><path class="cls-4" d="M192.8,180.5c8.42,0,15.25-9.07,15.25-20.25S201.22,140,192.8,140s-15.25,9.07-15.25,20.25S184.37,180.5,192.8,180.5Z"/><path class="cls-4" d="M215.67,213.22a7.5,7.5,0,0,1,14.41,4.18c-10.77,37.13-43.65,63.41-82.2,63.41S76.44,254.53,65.67,217.4a7.5,7.5,0,0,1,14.41-4.18c9,31.15,36.35,52.59,67.8,52.59S206.64,244.37,215.67,213.22Z"/></g></g></g></svg>