<svg xmlns="http://www.w3.org/2000/svg" viewBox="0 0 134.6 67.54"><defs><style>.cls-1{fill:#ff9b2f;}</style></defs><g id="Layer_2" data-name="Layer 2"><g id="Layer_1-2" data-name="Layer 1"><path class="cls-1" d="M17.44,6.41H29L12.74,48.46H1.14ZM3.71,41.83H9.76q7.05,0,15.09-.57A157.56,157.56,0,0,0,41.56,39.1l-2.5,9.43a143.1,143.1,0,0,1-17.31,2.3q-8.35.59-15.7.58H0ZM60,0H71.69L45.52,67.54H33.85Zm-.92,24.84H70.7L67,34.34H55.43Z"/><path class="cls-1" d="M73.47,28.66H134.6l-3.54,9.14H69.93ZM91.49.94h11.59L95.74,19.87H84.15ZM85.82,15.55h47.09l-3.54,9.15H82.28ZM75.33,42.62h46.51L112.39,67H65.87Zm31.72,9H83.22L80.76,58H104.6ZM96,33.48H107.6l-5.13,13.25H90.88Z"/></g></g></svg>