<svg width="40" height="40" viewBox="0 0 40 40" fill="none" xmlns="http://www.w3.org/2000/svg">
<path d="M15 31.3496C17.0148 31.3496 18.6504 32.9852 18.6504 35C18.6504 37.0148 17.0148 38.6504 15 38.6504C12.9852 38.6504 11.3496 37.0148 11.3496 35C11.3496 32.9852 12.9852 31.3496 15 31.3496ZM15 33.6504C14.2548 33.6504 13.6504 34.2548 13.6504 35C13.6504 35.7452 14.2548 36.3496 15 36.3496C15.7452 36.3496 16.3496 35.7452 16.3496 35C16.3496 34.2548 15.7452 33.6504 15 33.6504Z" fill="black" stroke="white" stroke-width="0.2"/>
<path d="M30 31.3496C32.0148 31.3496 33.6504 32.9852 33.6504 35C33.6504 37.0148 32.0148 38.6504 30 38.6504C27.9852 38.6504 26.3496 37.0148 26.3496 35C26.3496 32.9852 27.9852 31.3496 30 31.3496ZM30 33.6504C29.2548 33.6504 28.6504 34.2548 28.6504 35C28.6504 35.7452 29.2548 36.3496 30 36.3496C30.7452 36.3496 31.3496 35.7452 31.3496 35C31.3496 34.2548 30.7452 33.6504 30 33.6504Z" fill="black" stroke="white" stroke-width="0.2"/>
<path d="M2.5 1.34961H4.13281C5.91631 1.34976 7.43922 2.63998 7.73242 4.40039L8.45996 8.7666L8.47363 8.84961H34.4072C35.5095 8.84961 36.5526 9.3474 37.2461 10.2051C37.9396 11.0628 38.2068 12.1876 37.9756 13.2656L35.2988 25.7656C34.9374 27.4482 33.45 28.6504 31.7285 28.6504H13.2715C11.6576 28.6504 10.2497 27.5936 9.78223 26.0752L9.70117 25.7656V25.7627C9.70072 25.7605 9.7001 25.7572 9.69922 25.7529C9.69736 25.7439 9.6941 25.7297 9.69043 25.7119C9.6831 25.6763 9.67238 25.6235 9.6582 25.5547C9.62978 25.4167 9.5884 25.2139 9.53516 24.9551C9.42865 24.4374 9.27603 23.6951 9.0918 22.7979C8.72333 21.0033 8.22738 18.5876 7.7207 16.1025C6.70698 11.1307 5.64848 5.88537 5.46387 4.77832C5.35576 4.12651 4.7927 3.65054 4.13281 3.65039H2.5C1.86523 3.65039 1.34961 3.13477 1.34961 2.5C1.34961 1.86523 1.86523 1.34961 2.5 1.34961ZM8.94824 11.2705L11.9512 25.2832C12.0848 25.9055 12.6344 26.3496 13.2715 26.3496H31.7285C32.3656 26.3496 32.9152 25.9055 33.0488 25.2832L35.7275 12.7832C35.8125 12.3841 35.7143 11.9687 35.458 11.6514C35.2015 11.334 34.8148 11.1504 34.4072 11.1504H8.92285L8.94824 11.2705Z" fill="black" stroke="white" stroke-width="0.2"/>
</svg>
