<svg width="33" height="22" viewBox="0 0 33 22" fill="none" xmlns="http://www.w3.org/2000/svg">
<g clip-path="url(#clip0_1271_46)">
<path d="M14.6934 17.55C16.0259 17.5502 17.1143 18.5547 17.1143 19.8C17.1141 21.0453 16.0258 22.0499 14.6934 22.05C13.3607 22.05 12.2726 21.0454 12.2725 19.8C12.2725 18.5546 13.3607 17.55 14.6934 17.55ZM14.6934 19.1165C14.2812 19.1165 13.9531 19.4263 13.9531 19.8C13.9532 20.1737 14.2812 20.4836 14.6934 20.4836C15.1053 20.4835 15.4335 20.1736 15.4336 19.8C15.4336 19.4264 15.1054 19.1166 14.6934 19.1165Z" fill="black" stroke="black" stroke-width="0.1"/>
<path d="M24.1758 17.55C25.5083 17.5502 26.5967 18.5547 26.5967 19.8C26.5966 21.0453 25.5083 22.0499 24.1758 22.05C22.8432 22.05 21.755 21.0454 21.7549 19.8C21.7549 18.5546 22.8431 17.55 24.1758 17.55ZM24.1758 19.1165C23.7636 19.1165 23.4355 19.4263 23.4355 19.8C23.4357 20.1737 23.7637 20.4836 24.1758 20.4836C24.5877 20.4835 24.9159 20.1736 24.916 19.8C24.916 19.4264 24.5878 19.1166 24.1758 19.1165Z" fill="black" stroke="black" stroke-width="0.1"/>
<path d="M7.82227 -0.0498047C9.00229 -0.0498047 10.0148 0.742563 10.21 1.83008L10.6621 4.34961H26.9619C27.6916 4.34961 28.3833 4.65613 28.8438 5.18457C29.3041 5.71316 29.4828 6.40665 29.3291 7.07227L27.6357 14.4062C27.3951 15.4452 26.4074 16.1836 25.2686 16.1836H13.5996C12.4608 16.1835 11.473 15.4452 11.2324 14.4062V14.4033C11.2321 14.402 11.2311 14.4001 11.2305 14.3975C11.2293 14.3922 11.2279 14.3843 11.2256 14.374C11.221 14.3531 11.2141 14.3217 11.2051 14.2812C11.1871 14.2003 11.1606 14.0814 11.127 13.9297C11.0596 13.626 10.9632 13.1905 10.8467 12.6641C10.6137 11.6113 10.3008 10.1942 9.98047 8.73633C9.34006 5.82163 8.67009 2.7417 8.55273 2.08887C8.49423 1.76109 8.18719 1.5166 7.82227 1.5166H6.79004C6.32991 1.51649 5.95023 1.16917 5.9502 0.733398C5.9502 0.297598 6.32989 -0.0496958 6.79004 -0.0498047H7.82227ZM12.876 14.0762C12.9485 14.3891 13.2476 14.6161 13.5996 14.6162H25.2686C25.6207 14.6162 25.9207 14.3892 25.9932 14.0762L27.6865 6.74316C27.7326 6.54209 27.679 6.33245 27.5391 6.17188C27.3989 6.01104 27.1869 5.91699 26.9619 5.91699H10.9922L12.876 14.0762Z" fill="black" stroke="black" stroke-width="0.1"/>
</g>
<defs>
<clipPath id="clip0_1271_46">
<rect width="33" height="22" fill="white"/>
</clipPath>
</defs>
</svg>
