<svg width="33" height="22" viewBox="0 0 33 22" fill="none" xmlns="http://www.w3.org/2000/svg">
<g clip-path="url(#clip0_1269_32)">
<path fill-rule="evenodd" clip-rule="evenodd" d="M0 17.0942C0.00325837 17.3117 0.0493262 17.5264 0.135573 17.726C0.221819 17.9257 0.346554 18.1064 0.502654 18.2579C0.658755 18.4094 0.843162 18.5286 1.04534 18.6088C1.24753 18.6889 1.46352 18.7285 1.681 18.7252H4.447C4.65609 19.6585 5.17926 20.4916 5.92902 21.0854C6.67878 21.6792 7.60966 21.9975 8.566 21.9872C9.52251 21.9977 10.4536 21.6795 11.2036 21.0857C11.9536 20.4919 12.4769 19.6586 12.686 18.7252H22.146C22.3645 19.6537 22.8902 20.4812 23.638 21.0734C24.3857 21.6656 25.3116 21.9879 26.2655 21.9879C27.2194 21.9879 28.1453 21.6656 28.893 21.0734C29.6408 20.4812 30.1665 19.6537 30.385 18.7252H32.975L32.992 10.5692L26.242 4.05119H21.269H21.219V1.63119C21.2122 1.19189 21.0311 0.773283 20.7157 0.467429C20.4003 0.161574 19.9763 -0.00649022 19.537 0.000191897H1.682C1.24269 -0.00649022 0.818715 0.161574 0.503296 0.467429C0.187878 0.773283 0.00684316 1.19189 0 1.63119L0 17.0942ZM8.567 20.3552C8.08626 20.3405 7.62051 20.1844 7.2279 19.9066C6.8353 19.6288 6.53323 19.2414 6.35943 18.793C6.18562 18.3445 6.14777 17.8548 6.25061 17.3849C6.35345 16.9151 6.59242 16.4859 6.93767 16.1511C7.28293 15.8162 7.71918 15.5905 8.19195 15.5021C8.66472 15.4136 9.15306 15.4664 9.596 15.6539C10.0389 15.8413 10.4169 16.1551 10.6826 16.556C10.9483 16.9569 11.09 17.4272 11.09 17.9082C11.0797 18.5675 10.8081 19.1957 10.3348 19.6547C9.86149 20.1138 9.22527 20.3661 8.566 20.3562L8.567 20.3552ZM19.537 17.0942H12.687C12.4779 16.1608 11.9546 15.3275 11.2046 14.7337C10.4546 14.1399 9.52351 13.8217 8.567 13.8322C7.61066 13.8219 6.67978 14.1402 5.93002 14.734C5.18026 15.3278 4.65709 16.1609 4.448 17.0942H1.681V1.63119H19.537V17.0942ZM26.266 20.3552C25.7853 20.3405 25.3195 20.1844 24.9269 19.9066C24.5343 19.6288 24.2322 19.2414 24.0584 18.793C23.8846 18.3445 23.8468 17.8548 23.9496 17.3849C24.0524 16.9151 24.2914 16.4859 24.6367 16.1511C24.9819 15.8162 25.4182 15.5905 25.8909 15.5021C26.3637 15.4136 26.8521 15.4664 27.295 15.6539C27.7379 15.8413 28.1159 16.1551 28.3816 16.556C28.6473 16.9569 28.789 17.4272 28.789 17.9082C28.7785 18.5674 28.5067 19.1954 28.0335 19.6544C27.5603 20.1134 26.9242 20.3658 26.265 20.3562L26.266 20.3552ZM31.3 17.0942H30.386C30.1675 16.1657 29.6418 15.3382 28.894 14.746C28.1463 14.1537 27.2204 13.8315 26.2665 13.8315C25.3126 13.8315 24.3867 14.1537 23.639 14.746C22.8912 15.3382 22.3655 16.1657 22.147 17.0942H21.218V5.67819H21.266H25.547L31.31 11.2442L31.3 17.0942Z" fill="black"/>
</g>
<defs>
<clipPath id="clip0_1269_32">
<rect width="33" height="22" fill="white"/>
</clipPath>
</defs>
</svg>
