<svg width="40" height="40" viewBox="0 0 40 40" fill="none" xmlns="http://www.w3.org/2000/svg">
<g clip-path="url(#clip0_1265_18)">
<path fill-rule="evenodd" clip-rule="evenodd" d="M6.7 39C3.55198 39 1 36.4435 1 33.2897V18.702C1 17.0831 1.68582 15.5405 2.88691 14.4575L16.1869 2.46588C18.3546 0.511376 21.6454 0.511376 23.8131 2.46586L37.1131 14.4575C38.3141 15.5405 39 17.0831 39 18.702V33.2897C39 36.4435 36.4481 39 33.3 39H6.7ZM36.15 18.702V33.2897C36.15 34.8665 34.8739 36.1449 33.3 36.1449H27.6V25.676C27.6 22.5221 25.0481 19.9657 21.9 19.9657H18.1C14.952 19.9657 12.4 22.5221 12.4 25.676V36.1449H6.7C5.12598 36.1449 3.85 34.8665 3.85 33.2897V18.702C3.85 17.8926 4.19291 17.1212 4.79345 16.5797L18.0935 4.58809C19.1773 3.61083 20.8227 3.61083 21.9065 4.58809L35.2065 16.5797C35.8071 17.1212 36.15 17.8926 36.15 18.702ZM15.25 36.1449V25.676C15.25 24.0991 16.5261 22.8208 18.1 22.8208H21.9C23.4739 22.8208 24.75 24.0991 24.75 25.676V36.1449H15.25Z" fill="black" stroke="white" stroke-width="0.8"/>
</g>
<defs>
<clipPath id="clip0_1265_18">
<rect width="40" height="40" fill="white"/>
</clipPath>
</defs>
</svg>
