<svg xmlns="http://www.w3.org/2000/svg" viewBox="0 0 204.81 204.81"><defs><style>.cls-1{fill:#ffda00;}.cls-2{fill:#231f20;}</style></defs><g id="Layer_2" data-name="Layer 2"><g id="Layer_1-2" data-name="Layer 1"><rect class="cls-1" width="204.81" height="204.81" rx="37.47"/><path class="cls-2" d="M102.41,31.9c-36.82,0-66.67,27.61-66.67,61.66,0,25.16,10.53,37.16,25,48.11l.07,0v29.52a1.7,1.7,0,0,0,2.71,1.36L88.76,153.8l.54.24a72.4,72.4,0,0,0,13.11,1.19c36.82,0,66.66-27.61,66.66-61.67S139.23,31.9,102.41,31.9M80.06,109.19c6.53,0,12.12-3.91,13.8-10h9.67c-2.36,11.64-11.41,19.26-23.47,19.26-14,0-25.12-10.45-25.12-25s11.11-25,25.12-25c12.18,0,21.29,7.78,23.54,19.61H94c-1.46-6.44-7.24-10.44-13.9-10.44-9.42,0-15.69,6.72-15.69,15.82a15.48,15.48,0,0,0,15.69,15.7m63.69,8.34h-8.86v-20c0-4.6-2.68-7.08-6.8-7.08-4.6,0-7.55,2.82-7.55,8.52v18.54h-8.86V68.65h8.86V87c2.13-3.23,5.56-4.81,10.23-4.81A12.16,12.16,0,0,1,140,86c2.47,2.54,3.71,6,3.71,10.44Z"/></g></g></svg>