<svg width="33" height="22" viewBox="0 0 33 22" fill="none" xmlns="http://www.w3.org/2000/svg">
<g clip-path="url(#clip0_1269_30)">
<path fill-rule="evenodd" clip-rule="evenodd" d="M27.9935 19.6511C27.6814 17.5986 26.7986 15.6752 25.4457 14.1004C24.0928 12.5257 22.3245 11.363 20.3425 10.7451C21.3929 10.0319 22.187 9.0006 22.608 7.80275C23.0291 6.6049 23.055 5.30359 22.6819 4.08994C22.3088 2.87629 21.5564 1.81425 20.5352 1.05978C19.5139 0.30532 18.2777 -0.101807 17.008 -0.101807C15.7383 -0.101807 14.502 0.30532 13.4808 1.05978C12.4595 1.81425 11.7071 2.87629 11.334 4.08994C10.9609 5.30359 10.9868 6.6049 11.4079 7.80275C11.829 9.0006 12.623 10.0319 13.6735 10.7451C11.6915 11.363 9.9231 12.5257 8.57024 14.1004C7.21738 15.6752 6.33453 17.5986 6.02247 19.6511C5.98087 19.9413 6.00269 20.237 6.08642 20.5178C6.17015 20.7987 6.3138 21.0581 6.50747 21.2781C6.70232 21.5003 6.9424 21.6782 7.21162 21.7999C7.48085 21.9217 7.77299 21.9845 8.06847 21.9841H25.9465C26.2421 21.9846 26.5344 21.9218 26.8038 21.8C27.0732 21.6783 27.3135 21.5003 27.5085 21.2781C27.7023 21.058 27.846 20.7984 27.9297 20.5174C28.0135 20.2363 28.0352 19.9414 27.9935 19.6511ZM12.6205 5.88612C12.6117 5.01644 12.8617 4.16377 13.3385 3.43641C13.8153 2.70904 14.4975 2.13978 15.2985 1.8009C16.0995 1.46203 16.9832 1.36883 17.8372 1.53314C18.6913 1.69745 19.4773 2.11186 20.0954 2.72374C20.7134 3.33563 21.1357 4.11738 21.3087 4.96975C21.4816 5.82212 21.3973 6.70665 21.0665 7.51101C20.7357 8.31538 20.1733 9.00331 19.4508 9.48744C18.7283 9.97158 17.8782 10.2301 17.0085 10.2301C15.8509 10.2346 14.7389 9.77983 13.9162 8.96545C13.0936 8.15108 12.6276 7.04365 12.6205 5.88612ZM26.3395 20.2741C26.2908 20.3303 26.2306 20.3753 26.163 20.406C26.0953 20.4368 26.0218 20.4525 25.9475 20.4521H8.06747C7.99315 20.4526 7.91961 20.4369 7.85194 20.4061C7.78426 20.3754 7.72405 20.3304 7.67547 20.2741C7.62681 20.2194 7.59075 20.1547 7.56984 20.0846C7.54894 20.0144 7.54369 19.9405 7.55447 19.8681C7.90295 17.611 9.04756 15.5531 10.7813 14.0664C12.5151 12.5798 14.7236 11.7626 17.0075 11.7626C19.2913 11.7626 21.4998 12.5798 23.2336 14.0664C24.9674 15.5531 26.112 17.611 26.4605 19.8681C26.4712 19.9405 26.466 20.0144 26.4451 20.0846C26.4242 20.1547 26.3881 20.2194 26.3395 20.2741Z" fill="black"/>
</g>
<defs>
<clipPath id="clip0_1269_30">
<rect width="33" height="22" fill="white"/>
</clipPath>
</defs>
</svg>
