<svg width="40" height="40" viewBox="0 0 40 40" fill="none" xmlns="http://www.w3.org/2000/svg">
<path d="M35.2241 6.91744C34.3444 5.99253 33.3 5.25882 32.1505 4.75824C31.001 4.25765 29.7689 4 28.5246 4C27.2803 4 26.0482 4.25765 24.8987 4.75824C23.7492 5.25882 22.7047 5.99253 21.8251 6.91744L19.9995 8.83606L18.174 6.91744C16.3972 5.05005 13.9873 4.00097 11.4745 4.00097C8.9617 4.00097 6.55183 5.05005 4.77502 6.91744C2.9982 8.78482 2 11.3175 2 13.9584C2 16.5993 2.9982 19.132 4.77502 20.9994L19.9995 37L35.2241 20.9994C36.1041 20.0749 36.8022 18.9773 37.2785 17.7692C37.7548 16.561 38 15.2661 38 13.9584C38 12.6507 37.7548 11.3558 37.2785 10.1477C36.8022 8.93957 36.1041 7.84192 35.2241 6.91744Z" stroke="#1E1E1E" stroke-width="3" stroke-linecap="round" stroke-linejoin="round"/>
</svg>
