<svg width="40" height="40" viewBox="0 0 40 40" fill="none" xmlns="http://www.w3.org/2000/svg">
<path d="M16.7148 1.10352C20.5647 1.02329 24.2963 2.49979 27.127 5.22656C29.9576 7.95341 31.6676 11.7187 31.8984 15.7334C32.1292 19.7481 30.8625 23.7 28.3643 26.7607L28.3076 26.8291L28.3691 26.8936L37.5918 36.5176V36.5166C37.7916 36.7331 37.9029 37.0239 37.9004 37.3262C37.8979 37.6289 37.7811 37.918 37.5771 38.1309C37.3732 38.3436 37.098 38.4632 36.8115 38.4658C36.5609 38.4681 36.3179 38.3807 36.1221 38.2188L36.041 38.1455L26.8193 28.5225L26.7529 28.4531L26.6807 28.5166C23.7481 31.1232 19.9639 32.4447 16.1201 32.2041C12.2764 31.9635 8.66994 30.1796 6.05664 27.2256C3.44345 24.2716 2.0257 20.3764 2.10254 16.3555C2.17949 12.3342 3.74546 8.50002 6.46973 5.65723C9.19378 2.81486 12.8652 1.18379 16.7148 1.10352ZM19.5264 3.73633C17.0663 3.22571 14.5162 3.48781 12.1992 4.48926C9.88219 5.49076 7.9023 7.18658 6.50977 9.36133C5.11734 11.536 4.37402 14.0924 4.37402 16.707C4.37785 20.2119 5.71369 23.5732 8.08984 26.0527C10.392 28.455 13.4889 29.8401 16.7373 29.9277L17.0518 29.9316C19.56 29.9316 22.0118 29.1557 24.0967 27.7021C26.1814 26.2485 27.8056 24.1825 28.7646 21.7666C29.7237 19.3506 29.9752 16.6915 29.4863 14.127C28.9974 11.5625 27.7902 9.20615 26.0176 7.35645C24.245 5.50687 21.9861 4.247 19.5264 3.73633Z" fill="black" stroke="white" stroke-width="0.2"/>
</svg>
