<svg width="40" height="40" viewBox="0 0 40 40" fill="none" xmlns="http://www.w3.org/2000/svg">
<path d="M13.9378 22.718L26.08 29.882M26.0622 10.118L13.9378 17.282M36 7.4C36 10.3823 33.6122 12.8 30.6667 12.8C27.7211 12.8 25.3333 10.3823 25.3333 7.4C25.3333 4.41766 27.7211 2 30.6667 2C33.6122 2 36 4.41766 36 7.4ZM14.6667 20C14.6667 22.9823 12.2789 25.4 9.33333 25.4C6.38781 25.4 4 22.9823 4 20C4 17.0177 6.38781 14.6 9.33333 14.6C12.2789 14.6 14.6667 17.0177 14.6667 20ZM36 32.6C36 35.5823 33.6122 38 30.6667 38C27.7211 38 25.3333 35.5823 25.3333 32.6C25.3333 29.6177 27.7211 27.2 30.6667 27.2C33.6122 27.2 36 29.6177 36 32.6Z" stroke="#1E1E1E" stroke-width="3" stroke-linecap="round" stroke-linejoin="round"/>
</svg>
