<svg width="40" height="40" viewBox="0 0 40 40" fill="none" xmlns="http://www.w3.org/2000/svg">
<g clip-path="url(#clip0_1265_12)">
<mask id="mask0_1265_12" style="mask-type:luminance" maskUnits="userSpaceOnUse" x="0" y="0" width="40" height="40">
<path d="M40 0H0V40H40V0Z" fill="white"/>
</mask>
<g mask="url(#mask0_1265_12)">
<path d="M4.29688 3.5H28.4092C29.5307 3.50014 30.4935 4.40663 30.6094 5.61035L30.6211 5.85449L30.6133 7.97754L30.6113 8.47949H31.9473C33.8611 8.47958 35.4688 10.1273 35.4688 12.2129V18.4307H36.8721C37.6863 18.4307 38.3992 19.0917 38.4902 19.9834L38.5 20.165V25.1406C38.5 26.1195 37.7489 26.8721 36.8799 26.8721H35.4766V33.0986C35.4765 35.1772 33.8754 36.8309 31.9551 36.8311H3.71191C2.51566 36.831 1.5 35.7999 1.5 34.4766V6.42676C1.52042 4.78245 2.79303 3.5 4.29688 3.5ZM2.3623 34.4688C2.36249 35.2155 2.94742 35.8544 3.7041 35.8545H31.9473C33.4317 35.8544 34.5977 34.5884 34.5977 33.0898V26.8721H27.7148C26.8461 26.8718 26.0957 26.1193 26.0957 25.1406V20.1611C26.0959 19.1827 26.8462 18.4309 27.7148 18.4307H34.5977V12.2129C34.5977 10.7144 33.4317 9.44833 31.9473 9.44824H4.29688C3.8642 9.44824 3.45787 9.34542 3.08887 9.1582L2.3623 8.78906V34.4688ZM27.7227 19.3994C27.273 19.3997 26.9739 19.7807 26.9736 20.1611V25.1406C26.9736 25.5398 27.2826 25.9031 27.7227 25.9033H36.8721C37.3123 25.9033 37.6221 25.5399 37.6221 25.1406V20.1611C37.6218 19.7517 37.2945 19.3994 36.8721 19.3994H27.7227ZM4.29688 4.46875C3.20632 4.46875 2.37012 5.40193 2.37012 6.47852C2.37025 7.55861 3.20984 8.47949 4.29688 8.47949H29.7412L29.7432 7.98145L29.751 5.84863V5.84668C29.751 5.10491 29.1629 4.46889 28.4092 4.46875H4.29688Z" fill="black" stroke="black"/>
</g>
</g>
<defs>
<clipPath id="clip0_1265_12">
<rect width="40" height="40" fill="white"/>
</clipPath>
</defs>
</svg>
