<svg width="500" height="500" viewBox="0 0 500 500" fill="none" xmlns="http://www.w3.org/2000/svg">
<rect width="500" height="500" fill="#D0D0D0"/>
<path d="M168 249.75L157.795 250.023C157.689 249.295 157.402 248.652 156.932 248.091C156.462 247.515 155.848 247.068 155.091 246.75C154.348 246.417 153.485 246.25 152.5 246.25C151.212 246.25 150.114 246.508 149.205 247.023C148.311 247.538 147.871 248.235 147.886 249.114C147.871 249.795 148.144 250.386 148.705 250.886C149.28 251.386 150.303 251.788 151.773 252.091L158.5 253.364C161.985 254.03 164.576 255.136 166.273 256.682C167.985 258.227 168.848 260.273 168.864 262.818C168.848 265.212 168.136 267.295 166.727 269.068C165.333 270.841 163.424 272.22 161 273.205C158.576 274.174 155.803 274.659 152.682 274.659C147.697 274.659 143.765 273.636 140.886 271.591C138.023 269.53 136.386 266.773 135.977 263.318L146.955 263.045C147.197 264.318 147.826 265.288 148.841 265.955C149.856 266.621 151.152 266.955 152.727 266.955C154.152 266.955 155.311 266.689 156.205 266.159C157.098 265.629 157.553 264.924 157.568 264.045C157.553 263.258 157.205 262.629 156.523 262.159C155.841 261.674 154.773 261.295 153.318 261.023L147.227 259.864C143.727 259.227 141.121 258.053 139.409 256.341C137.697 254.614 136.848 252.417 136.864 249.75C136.848 247.417 137.47 245.424 138.727 243.773C139.985 242.106 141.773 240.833 144.091 239.955C146.409 239.076 149.144 238.636 152.295 238.636C157.023 238.636 160.75 239.629 163.477 241.614C166.205 243.583 167.712 246.295 168 249.75ZM184.176 274.591C181.949 274.591 179.972 274.22 178.244 273.477C176.532 272.72 175.176 271.583 174.176 270.068C173.191 268.538 172.699 266.621 172.699 264.318C172.699 262.379 173.04 260.742 173.722 259.409C174.403 258.076 175.343 256.992 176.54 256.159C177.737 255.326 179.116 254.697 180.676 254.273C182.237 253.833 183.903 253.538 185.676 253.386C187.661 253.205 189.259 253.015 190.472 252.818C191.684 252.606 192.563 252.311 193.108 251.932C193.669 251.538 193.949 250.985 193.949 250.273V250.159C193.949 248.992 193.547 248.091 192.744 247.455C191.941 246.818 190.858 246.5 189.494 246.5C188.025 246.5 186.843 246.818 185.949 247.455C185.055 248.091 184.487 248.97 184.244 250.091L173.994 249.727C174.297 247.606 175.078 245.712 176.335 244.045C177.608 242.364 179.35 241.045 181.562 240.091C183.79 239.121 186.464 238.636 189.585 238.636C191.813 238.636 193.866 238.902 195.744 239.432C197.623 239.947 199.259 240.705 200.653 241.705C202.047 242.689 203.123 243.902 203.881 245.341C204.653 246.78 205.04 248.424 205.04 250.273V274H194.585V269.136H194.312C193.691 270.318 192.896 271.318 191.926 272.136C190.972 272.955 189.843 273.568 188.54 273.977C187.252 274.386 185.797 274.591 184.176 274.591ZM187.608 267.318C188.805 267.318 189.881 267.076 190.835 266.591C191.805 266.106 192.578 265.439 193.153 264.591C193.729 263.727 194.017 262.727 194.017 261.591V258.273C193.699 258.439 193.313 258.591 192.858 258.727C192.419 258.864 191.934 258.992 191.403 259.114C190.873 259.235 190.328 259.341 189.767 259.432C189.206 259.523 188.669 259.606 188.153 259.682C187.108 259.848 186.214 260.106 185.472 260.455C184.744 260.803 184.184 261.258 183.79 261.818C183.411 262.364 183.222 263.015 183.222 263.773C183.222 264.924 183.631 265.803 184.449 266.409C185.282 267.015 186.335 267.318 187.608 267.318ZM211.835 274V239.091H222.403V245.5H222.79C223.517 243.379 224.744 241.705 226.472 240.477C228.199 239.25 230.259 238.636 232.653 238.636C235.078 238.636 237.153 239.258 238.881 240.5C240.608 241.742 241.706 243.409 242.176 245.5H242.54C243.191 243.424 244.464 241.765 246.358 240.523C248.252 239.265 250.487 238.636 253.062 238.636C256.366 238.636 259.047 239.697 261.108 241.818C263.169 243.924 264.199 246.818 264.199 250.5V274H253.085V253.045C253.085 251.303 252.638 249.977 251.744 249.068C250.85 248.144 249.691 247.682 248.267 247.682C246.737 247.682 245.532 248.182 244.653 249.182C243.79 250.167 243.358 251.492 243.358 253.159V274H232.676V252.932C232.676 251.311 232.237 250.03 231.358 249.091C230.479 248.152 229.32 247.682 227.881 247.682C226.911 247.682 226.055 247.917 225.312 248.386C224.57 248.841 223.987 249.492 223.562 250.341C223.153 251.189 222.949 252.189 222.949 253.341V274H211.835ZM271.085 287.091V239.091H282.085V245.068H282.426C282.881 244.008 283.525 242.985 284.358 242C285.206 241.015 286.282 240.212 287.585 239.591C288.903 238.955 290.479 238.636 292.312 238.636C294.737 238.636 297.002 239.273 299.108 240.545C301.229 241.818 302.941 243.78 304.244 246.432C305.547 249.083 306.199 252.462 306.199 256.568C306.199 260.523 305.57 263.833 304.312 266.5C303.07 269.167 301.388 271.167 299.267 272.5C297.161 273.833 294.82 274.5 292.244 274.5C290.487 274.5 288.964 274.212 287.676 273.636C286.388 273.061 285.305 272.303 284.426 271.364C283.562 270.424 282.896 269.417 282.426 268.341H282.199V287.091H271.085ZM281.972 256.545C281.972 258.424 282.222 260.061 282.722 261.455C283.237 262.848 283.972 263.932 284.926 264.705C285.896 265.462 287.055 265.841 288.403 265.841C289.767 265.841 290.926 265.462 291.881 264.705C292.835 263.932 293.555 262.848 294.04 261.455C294.54 260.061 294.79 258.424 294.79 256.545C294.79 254.667 294.54 253.038 294.04 251.659C293.555 250.28 292.835 249.212 291.881 248.455C290.941 247.697 289.782 247.318 288.403 247.318C287.04 247.318 285.881 247.689 284.926 248.432C283.972 249.174 283.237 250.235 282.722 251.614C282.222 252.992 281.972 254.636 281.972 256.545ZM323.136 227.455V274H312.023V227.455H323.136ZM346.528 274.659C342.877 274.659 339.725 273.939 337.074 272.5C334.438 271.045 332.407 268.977 330.983 266.295C329.574 263.598 328.869 260.394 328.869 256.682C328.869 253.076 329.581 249.924 331.006 247.227C332.43 244.515 334.438 242.409 337.028 240.909C339.619 239.394 342.672 238.636 346.188 238.636C348.672 238.636 350.945 239.023 353.006 239.795C355.066 240.568 356.847 241.712 358.347 243.227C359.847 244.742 361.013 246.614 361.847 248.841C362.68 251.053 363.097 253.591 363.097 256.455V259.227H332.756V252.773H352.756C352.741 251.591 352.46 250.538 351.915 249.614C351.369 248.689 350.619 247.97 349.665 247.455C348.725 246.924 347.642 246.659 346.415 246.659C345.172 246.659 344.059 246.939 343.074 247.5C342.089 248.045 341.309 248.795 340.733 249.75C340.157 250.689 339.854 251.758 339.824 252.955V259.523C339.824 260.947 340.104 262.197 340.665 263.273C341.225 264.333 342.021 265.159 343.051 265.75C344.081 266.341 345.309 266.636 346.733 266.636C347.718 266.636 348.612 266.5 349.415 266.227C350.218 265.955 350.907 265.553 351.483 265.023C352.059 264.492 352.491 263.841 352.778 263.068L362.983 263.364C362.559 265.652 361.627 267.644 360.188 269.341C358.763 271.023 356.892 272.333 354.574 273.273C352.256 274.197 349.574 274.659 346.528 274.659Z" fill="white"/>
</svg>
